<?xml version="1.0" standalone="no"?>
<!DOCTYPE svg PUBLIC "-//W3C//DTD SVG 20010904//EN"
 "http://www.w3.org/TR/2001/REC-SVG-20010904/DTD/svg10.dtd">
<svg version="1.0" xmlns="http://www.w3.org/2000/svg"
 width="1024.000000pt" height="1024.000000pt" viewBox="0 0 1024.000000 1024.000000"
 preserveAspectRatio="xMidYMid meet">

<g transform="translate(0.000000,1024.000000) scale(0.100000,-0.100000)"
fill="#000000" stroke="none">
<path d="M0 5120 l0 -5120 5120 0 5120 0 0 5120 0 5120 -5120 0 -5120 0 0
-5120z m10130 0 l0 -5010 -930 0 c-902 0 -930 1 -930 19 0 10 -9 39 -20 65
-41 90 -98 358 -129 598 -17 130 -38 272 -45 315 -14 72 -48 353 -60 483 -3
30 -12 109 -20 175 -8 66 -17 149 -20 184 -3 36 -19 177 -35 315 -17 138 -42
355 -56 481 -14 127 -30 253 -35 280 -5 28 -11 69 -14 93 -5 41 -64 383 -87
507 -18 94 -134 441 -179 533 -118 245 -503 581 -877 767 -144 71 -273 152
-298 185 l-23 32 -6 -59 c-3 -32 -11 -77 -16 -101 -6 -23 -10 -100 -10 -170
l0 -128 45 -99 c25 -55 48 -98 52 -95 20 13 0 451 -24 533 -8 30 21 16 236
-110 294 -171 429 -271 606 -448 391 -389 458 -630 495 -1760 15 -467 62
-1043 116 -1430 26 -189 82 -474 139 -717 31 -128 65 -273 76 -323 10 -49 22
-98 25 -107 5 -17 -6 -18 -159 -18 l-163 0 -28 162 c-26 150 -68 378 -132 703
-30 156 -115 513 -190 797 -72 274 -73 292 -35 448 35 142 37 175 16 394 -16
167 -13 231 20 373 25 106 17 104 -28 -7 -45 -110 -66 -152 -67 -134 0 5 7 62
15 125 33 243 36 313 28 679 -6 328 -8 358 -19 300 -18 -94 -31 -253 -45 -518
-7 -129 -16 -227 -21 -220 -4 7 -8 42 -8 78 0 36 -7 155 -15 265 -8 110 -15
227 -16 260 -1 55 -2 57 -10 25 -5 -19 -8 -291 -6 -605 1 -337 -3 -705 -11
-900 -10 -245 -10 -354 -2 -425 6 -52 51 -295 100 -540 49 -245 105 -553 124
-685 37 -251 76 -541 76 -562 0 -10 -40 -13 -167 -13 l-168 0 -2 128 c-4 172
-23 274 -78 406 -6 14 -5 17 4 12 23 -15 -67 150 -127 230 -139 189 -359 416
-541 562 -104 83 -92 60 16 -30 126 -106 310 -289 400 -398 123 -150 254 -343
240 -356 -2 -2 -24 27 -50 65 -82 124 -209 274 -352 416 -131 131 -274 259
-282 251 -7 -7 127 -228 214 -352 333 -478 365 -549 406 -902 l4 -32 -735 0
-734 0 6 32 c11 63 82 2293 79 2483 0 33 5 311 13 618 8 306 14 661 14 787 0
211 -5 253 -25 220 -3 -5 -31 -10 -61 -10 -65 0 -74 13 -53 74 13 38 17 41 46
38 61 -6 95 62 94 190 0 64 1 69 24 78 49 19 63 1 163 -195 83 -163 133 -245
139 -227 11 30 -142 344 -204 420 l-35 43 63 56 c161 142 274 278 329 397 l27
58 21 -33 c12 -19 42 -63 67 -98 l45 -63 0 93 c0 213 -32 344 -101 415 l-30
31 23 7 c13 3 34 6 48 6 66 0 274 184 418 370 77 99 134 192 259 420 74 135
97 188 126 290 34 119 36 134 40 309 l4 184 27 19 c20 15 26 28 26 56 0 44 -8
57 -38 66 -12 4 -27 17 -33 29 -15 29 -49 66 -72 79 -12 6 -8 -4 12 -33 17
-23 31 -49 31 -58 0 -9 -14 5 -30 31 -16 25 -34 49 -40 53 -5 3 -8 10 -5 15 3
5 0 12 -6 16 -8 4 -9 3 -5 -4 10 -16 -4 -14 -34 4 -21 13 -21 15 -5 11 19 -4
20 -1 15 52 -4 31 -3 99 3 151 24 257 -39 518 -173 709 -22 31 -40 60 -40 65
0 4 17 28 38 51 48 54 72 126 79 231 12 179 -76 427 -203 569 -28 32 -28 31
11 -63 60 -144 53 -287 -17 -336 -50 -35 -144 -10 -378 102 -147 70 -258 109
-447 158 -127 33 -153 37 -332 43 -224 7 -332 -3 -521 -50 -372 -92 -655 -259
-941 -555 -147 -152 -236 -296 -297 -479 -40 -122 -51 -195 -62 -435 -6 -150
-16 -241 -35 -340 -51 -259 -39 -388 54 -575 137 -276 486 -571 701 -592 25
-3 99 2 164 12 65 9 122 12 126 8 8 -9 78 -220 105 -317 9 -32 13 -62 8 -67
-4 -4 -42 -12 -84 -18 -94 -13 -114 -21 -161 -60 -36 -32 -66 -92 -89 -181
-10 -41 -47 -110 -106 -201 -29 -45 -29 -88 1 -162 74 -178 280 -425 586 -701
165 -149 187 -166 206 -159 7 3 30 33 51 67 82 135 187 293 215 323 31 32 51
33 106 4 28 -15 62 -73 62 -105 0 -28 -33 -100 -50 -111 -26 -16 -61 7 -91 58
-17 28 -27 41 -24 27 14 -49 51 -105 83 -125 26 -16 31 -25 28 -45 -16 -81
-26 -316 -36 -785 -6 -291 -15 -744 -21 -1005 -15 -616 -6 -1807 15 -2145 8
-137 15 -260 16 -272 l0 -23 -689 0 -689 0 39 72 c21 39 38 73 36 74 -2 2 -26
-29 -53 -69 -45 -66 -52 -72 -86 -75 -21 -2 -38 -1 -38 2 0 3 29 49 64 104
103 158 365 646 354 658 -2 2 -55 -75 -117 -172 -84 -130 -312 -462 -407 -592
-1 -2 -20 -2 -42 0 l-40 3 57 85 c31 47 140 204 241 350 228 327 321 479 420
685 43 88 89 184 104 214 14 30 26 57 26 59 0 15 -249 -261 -424 -472 -254
-304 -404 -529 -552 -829 l-49 -97 -242 0 c-134 0 -243 2 -243 4 0 3 7 85 15
183 8 98 19 259 25 358 6 99 15 225 20 280 5 55 12 152 15 215 20 377 55 753
100 1065 47 333 84 680 85 804 0 49 -14 -22 -40 -205 -17 -115 -46 -276 -64
-359 l-34 -150 -1 153 c-1 186 -14 311 -47 461 -42 190 -114 372 -198 506 -39
62 -31 22 23 -110 51 -125 123 -367 140 -470 19 -113 23 -224 16 -390 -4 -91
-9 -164 -12 -161 -2 2 -11 98 -18 213 -20 293 -33 375 -92 555 -34 107 -58
152 -43 80 16 -71 40 -298 51 -482 16 -257 23 -735 11 -756 -6 -12 -8 64 -5
217 2 129 0 270 -5 314 l-9 80 -2 -70 c0 -38 -10 -243 -21 -455 -26 -519 -49
-1123 -57 -1538 l-6 -342 -700 0 -699 0 7 73 c55 596 164 1254 331 2008 165
747 331 1211 624 1739 217 392 461 656 862 933 127 88 258 160 437 242 83 37
149 70 147 73 -3 2 -20 8 -38 12 -33 7 -32 7 51 46 46 21 79 40 73 42 -20 6
-233 -68 -325 -115 -379 -189 -634 -377 -936 -689 -191 -198 -329 -376 -463
-599 -139 -232 -226 -417 -264 -563 -8 -29 -23 -72 -33 -95 -53 -119 -219
-743 -306 -1153 -15 -71 -45 -228 -65 -349 -56 -323 -117 -678 -135 -775 -8
-47 -22 -152 -30 -235 -8 -82 -19 -197 -25 -255 -6 -58 -16 -158 -22 -222
l-11 -118 -699 0 -698 0 0 5010 0 5010 5010 0 5010 0 0 -5010z m-5600 3680
c-14 -11 -63 -45 -110 -77 -141 -94 -241 -176 -330 -270 -86 -91 -188 -241
-231 -342 -12 -30 -25 -49 -27 -43 -5 17 59 145 119 237 60 91 228 263 339
347 110 83 330 219 240 148z m2076 -371 c-15 -30 -15 -32 43 -127 72 -120 108
-210 132 -327 18 -91 39 -246 39 -298 l0 -28 -37 30 c-70 55 -104 64 -274 69
-174 5 -192 0 -215 -53 -18 -44 -3 -92 32 -101 14 -4 66 -1 117 5 106 13 387
18 405 7 12 -7 17 -132 6 -172 -5 -19 -9 -20 -82 -11 -118 13 -293 1 -353 -24
-54 -24 -104 -74 -126 -128 -9 -20 -19 -38 -23 -41 -5 -3 -79 -5 -166 -5
l-157 0 -24 45 c-33 64 -95 117 -162 138 -69 21 -381 25 -446 5 -108 -33 -204
-122 -228 -211 -6 -24 -17 -47 -24 -49 -20 -8 -555 85 -568 98 -2 3 32 74 75
159 128 255 166 389 158 561 -3 71 -10 104 -26 136 -29 56 -28 58 11 30 54
-41 136 -78 206 -93 135 -28 244 -14 427 56 166 64 226 77 427 94 209 17 303
34 432 77 106 36 366 162 392 191 23 26 29 7 9 -33z m136 -96 c37 -44 91 -147
114 -217 34 -108 29 -117 -10 -16 -38 100 -46 116 -98 193 -36 53 -40 79 -6
40z m56 -980 c-12 -29 -71 -113 -79 -113 -5 0 -19 15 -31 34 -32 48 -109 82
-132 59 -4 -4 -31 -13 -59 -19 -29 -6 -61 -14 -72 -18 -16 -6 -15 -4 5 12 29
24 103 47 119 37 6 -3 11 -1 11 4 0 7 42 11 121 11 66 0 119 -3 117 -7z
m-1088 -29 c126 -37 177 -172 134 -354 -41 -177 -145 -249 -344 -237 -217 13
-284 80 -297 298 -8 129 0 169 32 169 22 0 25 -4 25 -36 0 -49 45 -94 94 -94
49 0 95 42 105 97 5 23 4 48 -1 58 -13 23 -8 25 32 11 27 -8 40 -22 59 -58 12
-27 27 -45 32 -42 14 8 0 72 -27 126 -31 61 -69 75 -156 58 -33 -6 -67 -14
-77 -16 -10 -4 -9 -1 4 7 62 40 271 47 385 13z m1181 -3 c20 -16 24 -28 23
-75 0 -47 -6 -63 -38 -110 -27 -40 -37 -63 -34 -81 6 -30 6 -30 -34 -9 l-30
16 4 86 c3 61 11 103 28 140 25 57 42 64 81 33z m-276 -114 c8 -12 15 -37 17
-55 3 -43 21 -58 42 -37 9 9 16 20 16 25 0 20 -23 66 -42 88 -18 18 -19 22 -5
22 9 0 28 -10 42 -22 21 -19 28 -37 36 -98 16 -114 17 -118 42 -125 51 -16
117 -100 117 -150 0 -32 8 -32 48 5 55 50 84 127 91 244 6 97 7 99 14 46 12
-100 -16 -202 -79 -286 -55 -72 -192 -111 -352 -101 -118 7 -163 36 -215 138
-38 73 -39 79 -40 184 -2 94 0 110 14 113 11 2 18 -7 23 -30 10 -51 42 -78 92
-78 66 0 89 25 89 98 0 54 1 59 17 51 10 -5 25 -20 33 -32z m-2407 -41 c36
-19 95 -82 118 -126 20 -38 25 -155 10 -222 -12 -54 0 -86 40 -110 25 -15 43
-37 59 -75 14 -30 33 -66 45 -80 36 -46 19 -88 -49 -123 -39 -20 -114 -14
-169 14 -123 62 -259 259 -293 424 -11 51 -10 69 4 128 22 89 46 134 87 162
38 26 107 30 148 8z m637 -100 l249 -51 13 -62 c41 -203 163 -287 418 -287
242 0 395 127 421 349 10 85 15 89 138 93 152 6 147 9 179 -95 49 -164 130
-265 239 -298 79 -23 249 -18 341 11 15 5 17 -4 17 -104 0 -134 -23 -231 -85
-358 -85 -176 -249 -358 -428 -475 -138 -91 -179 -104 -327 -104 -145 0 -259
25 -465 102 -463 171 -711 392 -845 751 -15 42 -31 84 -35 93 -5 13 0 15 26
11 l33 -5 -37 45 c-54 66 -104 180 -137 314 -16 65 -30 123 -30 127 0 5 15 5
33 1 17 -4 144 -30 282 -58z m360 -1486 c135 -102 363 -253 462 -306 127 -69
146 -83 132 -100 -18 -22 -1 -16 45 16 68 46 159 143 196 210 63 109 61 110
57 -40 -4 -154 -19 -206 -90 -312 -65 -98 -209 -236 -294 -281 l-72 -38 -48
25 c-113 57 -440 315 -575 454 l-88 89 15 31 c37 73 40 238 8 426 l-6 39 84
-73 c46 -40 125 -103 174 -140z m-400 80 c-3 -5 -27 -10 -53 -10 -103 0 -182
-45 -182 -104 0 -121 272 -402 645 -667 66 -47 141 -100 167 -118 l48 -32 -50
-60 c-27 -33 -75 -97 -105 -143 -63 -94 -98 -131 -118 -123 -14 5 -331 342
-468 497 -157 179 -231 308 -232 409 0 45 5 66 23 91 12 17 35 66 51 107 32
86 50 110 99 131 56 23 186 40 175 22z m829 -1841 c52 -41 26 -129 -37 -129
-43 0 -67 25 -67 71 0 29 6 42 26 58 15 12 32 21 39 21 7 0 24 -9 39 -21z
m-15 -1165 c24 -30 26 -43 10 -77 -31 -68 -129 -43 -129 32 0 32 39 71 70 71
19 0 36 -9 49 -26z"/>
<path d="M6870 2599 c-58 -45 -125 -98 -150 -119 -25 -20 -51 -40 -57 -44 -8
-4 -49 13 -97 39 -112 61 -191 88 -206 71 -14 -18 -1 -28 76 -59 34 -13 96
-48 139 -77 52 -35 82 -50 91 -44 44 32 302 245 318 262 17 20 16 52 -2 52 -4
0 -55 -37 -112 -81z"/>
<path d="M4679 1583 c-204 -197 -534 -601 -598 -733 l-12 -25 21 25 c11 14 48
63 82 110 162 225 389 491 540 635 62 58 107 105 100 105 -6 0 -66 -53 -133
-117z"/>
<path d="M3352 1315 c-21 -122 -62 -387 -62 -399 0 -6 4 -4 9 4 19 34 78 423
69 451 -2 7 -10 -18 -16 -56z"/>
<path d="M5525 7724 c-177 -17 -267 -30 -328 -50 -49 -16 -313 -204 -287 -204
8 0 59 16 115 35 158 54 229 65 489 76 271 10 286 14 286 75 0 24 -8 43 -25
59 -28 29 -40 29 -250 9z"/>
<path d="M4113 7089 c-50 -14 -73 -52 -73 -118 l0 -56 19 31 c42 69 95 82 142
35 36 -37 36 -49 2 -62 -44 -16 -71 -48 -93 -107 -11 -30 -19 -56 -18 -58 2
-1 16 22 32 52 31 58 83 100 117 91 42 -11 53 70 17 123 -42 61 -91 84 -145
69z"/>
<path d="M4300 6646 c0 -18 26 -27 56 -20 30 8 31 20 2 28 -37 10 -58 7 -58
-8z"/>
<path d="M5930 6792 c-52 -69 -62 -90 -55 -121 16 -74 121 -104 209 -61 25 12
46 25 46 29 0 4 -29 4 -65 -1 -119 -16 -156 26 -118 135 12 34 21 62 20 63 -1
1 -18 -19 -37 -44z"/>
<path d="M6312 6663 c-19 -12 -59 -32 -90 -43 -61 -23 -82 -37 -82 -52 0 -14
63 -1 122 24 52 22 92 59 86 80 -2 11 -10 9 -36 -9z"/>
<path d="M5535 6323 c33 -25 118 -62 171 -74 76 -16 457 -23 541 -10 88 14
175 45 211 76 l27 23 -56 -18 c-134 -46 -705 -46 -849 -1 -52 16 -61 17 -45 4z"/>
<path d="M6061 6150 l-145 -5 32 -27 c65 -55 178 -64 240 -19 41 29 60 62 35
59 -10 -1 -83 -5 -162 -8z"/>
</g>
</svg>
