<?xml version="1.0" standalone="no"?>
<!DOCTYPE svg PUBLIC "-//W3C//DTD SVG 20010904//EN"
 "http://www.w3.org/TR/2001/REC-SVG-20010904/DTD/svg10.dtd">
<svg version="1.0" xmlns="http://www.w3.org/2000/svg"
 width="157.000000pt" height="87.000000pt" viewBox="0 0 157.000000 87.000000"
 preserveAspectRatio="xMidYMid meet">
<metadata>
Created by potrace 1.10, written by Peter Selinger 2001-2011
</metadata>
<g transform="translate(0.000000,87.000000) scale(0.100000,-0.100000)"
fill="#000000" stroke="none">
<path d="M1065 631 c-71 -43 -145 -171 -145 -252 0 -65 30 -103 75 -96 42 7
115 53 115 72 0 20 -2 19 -60 -10 -62 -32 -78 -31 -86 1 -16 65 48 204 116
251 33 23 43 3 20 -41 -11 -22 -17 -43 -14 -47 11 -18 34 -8 49 21 22 43 19
86 -7 104 -28 20 -27 20 -63 -3z"/>
<path d="M513 618 c-21 -29 -87 -226 -87 -265 -1 -68 14 -54 40 35 13 45 38
112 54 149 26 56 28 69 17 80 -11 12 -16 12 -24 1z"/>
<path d="M313 607 c-55 -13 -61 -41 -6 -31 33 6 36 5 29 -12 -5 -10 -22 -66
-40 -123 -17 -57 -35 -105 -41 -106 -5 -2 -22 -6 -37 -9 -39 -9 -35 -26 6 -26
19 0 37 -6 39 -12 4 -10 7 -10 14 -1 5 6 28 13 53 15 33 2 46 8 48 21 3 15 -2
17 -37 11 l-40 -6 24 78 c14 44 30 97 37 119 14 48 32 65 70 65 18 0 28 5 28
15 0 18 -78 19 -147 2z"/>
<path d="M564 545 c-8 -32 1 -43 24 -29 22 14 22 48 0 52 -12 2 -19 -5 -24
-23z"/>
<path d="M649 461 c-42 -45 -62 -116 -38 -132 24 -15 45 -10 69 16 27 29 40
32 40 10 0 -21 27 -30 45 -15 21 17 19 30 -4 30 -16 0 -18 5 -14 40 6 44 -16
90 -44 90 -9 0 -33 -18 -54 -39z m66 -12 c9 -13 -43 -89 -61 -89 -24 0 -11 42
24 83 17 20 28 22 37 6z"/>
<path d="M527 411 c-11 -33 -17 -67 -15 -77 5 -29 27 -27 33 3 4 15 13 46 20
67 11 29 12 43 4 53 -18 21 -23 16 -42 -46z"/>
<path d="M1144 365 c-10 -25 10 -39 36 -25 26 14 22 34 -8 38 -13 2 -25 -3
-28 -13z"/>
</g>
</svg>
