<?xml version="1.0" standalone="no"?>
<!DOCTYPE svg PUBLIC "-//W3C//DTD SVG 20010904//EN"
 "http://www.w3.org/TR/2001/REC-SVG-20010904/DTD/svg10.dtd">
<svg version="1.0" xmlns="http://www.w3.org/2000/svg"
 width="764.000000pt" height="764.000000pt" viewBox="0 0 764.000000 764.000000"
 preserveAspectRatio="xMidYMid meet">

<g transform="translate(0.000000,764.000000) scale(0.100000,-0.100000)"
fill="#000000" stroke="none">
<path d="M0 7626 c0 -7 13 -16 30 -19 29 -6 30 -9 30 -57 0 -27 5 -50 10 -50
6 0 10 11 10 25 0 13 5 36 12 50 11 24 15 25 95 25 49 0 83 -4 83 -10 0 -14
31 -12 71 3 25 10 80 13 204 11 392 -7 449 -10 453 -22 5 -17 32 -15 32 3 0
20 79 21 106 1 16 -13 21 -12 36 1 10 9 34 15 60 14 24 0 64 -1 90 -1 41 0 45
-2 41 -20 -4 -15 0 -20 15 -20 12 0 25 8 30 17 11 19 13 19 227 9 84 -3 151
-11 153 -16 5 -13 52 -13 52 0 0 11 75 8 115 -5 11 -3 51 -7 89 -8 45 -1 71
-6 74 -14 2 -9 -8 -13 -30 -13 -30 -1 -32 -2 -14 -15 10 -7 15 -19 11 -25 -8
-13 22 -50 42 -50 7 0 13 7 13 15 0 10 10 15 29 15 40 0 46 24 14 54 -24 23
-24 24 -6 30 11 3 39 4 64 0 24 -3 71 -7 104 -10 208 -13 206 -13 198 -44 -3
-11 0 -20 6 -20 6 0 11 11 11 25 0 23 4 25 41 25 24 0 38 -4 34 -10 -3 -5 -18
-10 -32 -10 -25 0 -25 -1 -10 -18 10 -10 17 -26 17 -34 0 -9 7 -18 15 -22 11
-4 15 1 15 19 0 13 8 29 18 35 12 8 13 13 5 16 -41 18 11 23 202 24 118 0 215
-4 215 -9 0 -8 192 -14 515 -16 72 0 165 -1 208 -3 l77 -2 0 -31 c0 -19 4 -28
11 -23 6 3 8 17 5 29 -6 22 -2 23 53 30 33 4 68 4 78 1 28 -8 357 -15 1073
-21 360 -3 786 -8 945 -11 160 -3 333 -5 385 -4 52 1 129 2 170 3 41 0 95 -1
120 -2 39 -3 192 -5 258 -4 12 1 22 -2 22 -6 0 -3 82 -6 183 -6 100 1 186 -1
192 -4 5 -3 28 -4 51 -2 55 3 63 -12 62 -110 l-1 -74 -11 54 c-10 50 -36 84
-36 47 0 -22 -34 -37 -77 -34 -32 3 -37 0 -44 -25 -7 -25 -6 -27 14 -21 12 3
27 11 34 16 7 5 17 7 23 3 5 -3 10 0 10 7 1 7 8 -3 17 -22 9 -20 15 -55 14
-80 -3 -53 13 -100 32 -100 11 0 15 -27 19 -120 4 -93 9 -124 22 -139 9 -10
14 -25 10 -35 -3 -9 -3 -24 1 -34 6 -16 7 -16 21 2 8 11 14 32 14 46 0 27 55
90 78 90 9 0 12 86 12 360 l0 360 -3820 0 c-3235 0 -3820 -2 -3820 -14z m2146
-131 c1 -8 -2 -15 -7 -15 -5 0 -9 10 -9 22 0 23 12 17 16 -7z"/>
<path d="M277 7540 c-7 -26 5 -33 35 -21 12 6 17 10 11 10 -7 1 -13 8 -13 16
0 22 -27 18 -33 -5z"/>
<path d="M1299 7534 c-23 -13 -23 -13 14 -14 24 0 40 -5 43 -15 7 -17 44 -21
44 -5 0 6 -9 10 -20 10 -11 0 -20 6 -20 14 0 20 -33 25 -61 10z"/>
<path d="M812 7528 c-7 -7 -18 -13 -25 -13 -7 0 -13 -12 -15 -27 -4 -32 3 -33
126 -15 69 9 74 9 88 -11 13 -19 17 -20 47 -7 23 10 34 22 38 44 4 17 4 31 2
31 -9 0 -48 -24 -54 -33 -4 -6 -24 -2 -50 11 -57 26 -140 37 -157 20z"/>
<path d="M1539 7514 c-11 -14 -10 -18 6 -30 10 -8 24 -14 31 -14 7 0 19 -3 28
-6 11 -4 16 0 16 12 -1 47 -53 71 -81 38z"/>
<path d="M1144 7503 c4 -25 26 -28 26 -4 0 12 -6 21 -14 21 -8 0 -13 -8 -12
-17z"/>
<path d="M1217 7497 c3 -13 10 -24 16 -25 7 -1 24 -4 40 -8 42 -10 36 23 -8
42 -47 19 -53 18 -48 -9z"/>
<path d="M1735 7500 c-20 -22 -61 -27 -68 -7 -4 9 -8 9 -16 -3 -5 -8 -7 -18
-5 -22 3 -4 0 -8 -6 -8 -27 0 3 -18 40 -24 22 -3 40 -11 40 -16 0 -6 7 -10 15
-10 8 0 15 9 15 20 0 14 7 20 23 20 35 0 48 18 35 46 -14 30 -48 31 -73 4z"/>
<path d="M2020 7505 c0 -8 5 -15 10 -15 6 0 10 7 10 15 0 8 -4 15 -10 15 -5 0
-10 -7 -10 -15z"/>
<path d="M2247 7509 c-25 -15 -11 -29 22 -23 18 4 33 0 44 -11 9 -9 21 -13 27
-10 16 10 12 25 -5 19 -8 -4 -15 -1 -15 5 0 6 -7 11 -15 11 -8 0 -15 5 -15 10
0 13 -20 12 -43 -1z"/>
<path d="M575 7500 c-3 -5 -1 -10 5 -10 6 0 8 -4 5 -10 -3 -5 1 -10 9 -10 9 0
16 9 16 20 0 21 -24 28 -35 10z"/>
<path d="M1440 7490 c0 -11 5 -20 10 -20 6 0 10 -7 10 -15 0 -10 10 -15 29
-15 23 0 29 4 29 23 0 15 -10 27 -26 35 -37 17 -52 15 -52 -8z"/>
<path d="M1894 7501 c4 -5 0 -12 -6 -15 -7 -3 -4 -4 8 -1 15 4 23 -2 31 -22
l10 -28 8 29 c5 20 4 31 -6 37 -18 12 -52 11 -45 0z"/>
<path d="M2845 7500 c-4 -6 -3 -16 3 -22 6 -6 12 -6 17 2 4 6 3 16 -3 22 -6 6
-12 6 -17 -2z"/>
<path d="M2440 7487 c0 -19 10 -27 26 -20 11 4 12 9 3 19 -15 18 -29 18 -29 1z"/>
<path d="M80 7479 c0 -5 5 -7 10 -4 6 3 10 8 10 11 0 2 -4 4 -10 4 -5 0 -10
-5 -10 -11z"/>
<path d="M431 7461 c-21 -13 -29 -223 -9 -253 11 -17 17 -69 21 -203 4 -99 9
-196 12 -215 5 -33 20 -58 29 -49 3 3 6 95 7 206 2 163 0 206 -12 225 -11 17
-14 52 -13 147 2 150 -1 164 -35 142z"/>
<path d="M1662 7386 c-5 -6 -12 -26 -15 -43 -6 -31 -5 -33 21 -33 38 0 63 20
56 45 -7 26 -50 48 -62 31z"/>
<path d="M1888 7393 c7 -3 16 -2 19 1 4 3 -2 6 -13 5 -11 0 -14 -3 -6 -6z"/>
<path d="M954 7365 c-14 -21 -15 -31 -6 -50 15 -32 47 -32 68 0 12 18 22 23
39 19 27 -7 39 8 30 36 -7 23 -33 27 -41 5 -5 -13 -8 -13 -27 0 -30 21 -44 19
-63 -10z"/>
<path d="M4726 7374 c-8 -20 -8 -197 0 -218 10 -25 47 0 40 27 -3 12 -6 59 -7
104 -1 52 -7 87 -14 93 -9 8 -14 6 -19 -6z"/>
<path d="M1393 7361 c-18 -8 -33 -18 -33 -22 0 -18 81 -30 175 -27 l100 3 -46
23 c-53 26 -77 28 -105 8 -21 -15 -34 -11 -50 14 -8 13 -13 14 -41 1z"/>
<path d="M1777 7373 c-11 -10 23 -42 39 -36 10 4 11 10 3 24 -10 19 -30 25
-42 12z"/>
<path d="M575 7361 c-3 -6 1 -13 8 -18 8 -4 17 -15 20 -23 3 -8 6 0 6 18 1 31
-20 45 -34 23z"/>
<path d="M2790 7350 c0 -19 20 -27 33 -13 8 7 -11 33 -24 33 -5 0 -9 -9 -9
-20z"/>
<path d="M230 7350 c0 -5 5 -10 11 -10 5 0 7 5 4 10 -3 6 -8 10 -11 10 -2 0
-4 -4 -4 -10z"/>
<path d="M803 7341 c-22 -18 -22 -18 35 -24 61 -6 86 7 55 31 -24 17 -64 14
-90 -7z"/>
<path d="M6345 7350 c-7 -11 30 -19 45 -10 7 5 2 9 -14 12 -15 3 -29 2 -31 -2z"/>
<path d="M1992 7338 c-7 -7 -12 -26 -12 -43 0 -38 -24 -62 -68 -71 -30 -6 -37
-15 -32 -39 1 -5 -7 -15 -16 -22 -10 -7 -13 -13 -7 -13 7 0 15 5 18 10 4 6 25
9 48 7 63 -6 82 7 99 68 13 47 13 56 -1 84 -13 25 -19 29 -29 19z"/>
<path d="M2116 7343 c-22 -22 24 -56 62 -46 24 6 37 32 19 38 -30 9 -75 13
-81 8z"/>
<path d="M520 7320 c0 -19 3 -21 12 -12 9 9 9 15 0 24 -9 9 -12 7 -12 -12z"/>
<path d="M3541 7326 c-8 -10 -8 -16 2 -25 16 -13 27 -5 27 21 0 21 -13 23 -29
4z"/>
<path d="M7227 7325 c-8 -18 11 -31 25 -17 11 11 3 32 -12 32 -4 0 -10 -7 -13
-15z"/>
<path d="M2320 7320 c0 -5 7 -10 15 -10 8 0 15 5 15 10 0 6 -7 10 -15 10 -8 0
-15 -4 -15 -10z"/>
<path d="M2714 7321 c4 -6 2 -11 -3 -11 -6 0 -11 -4 -11 -10 0 -5 9 -10 21
-10 23 0 23 30 0 38 -8 3 -11 0 -7 -7z"/>
<path d="M7018 7313 c7 -3 16 -2 19 1 4 3 -2 6 -13 5 -11 0 -14 -3 -6 -6z"/>
<path d="M3512 7201 c-6 -16 -8 -32 -5 -35 9 -9 33 22 33 43 0 31 -16 26 -28
-8z"/>
<path d="M150 7205 c-8 -9 -8 -15 -2 -15 12 0 26 19 19 26 -2 2 -10 -2 -17
-11z"/>
<path d="M220 7200 c0 -11 7 -20 15 -20 8 0 15 9 15 20 0 11 -7 20 -15 20 -8
0 -15 -9 -15 -20z"/>
<path d="M495 7210 c3 -5 8 -10 11 -10 2 0 4 5 4 10 0 6 -5 10 -11 10 -5 0 -7
-4 -4 -10z"/>
<path d="M1567 7184 c-7 -41 -4 -50 12 -39 13 7 14 45 2 63 -5 9 -10 2 -14
-24z"/>
<path d="M3263 7213 c-17 -6 -16 -43 2 -67 13 -18 15 -18 21 -2 5 13 14 15 35
11 37 -8 36 -1 -3 36 -34 30 -35 31 -55 22z"/>
<path d="M710 7190 c0 -5 4 -10 9 -10 6 0 13 5 16 10 3 6 -1 10 -9 10 -9 0
-16 -4 -16 -10z"/>
<path d="M880 7190 c0 -12 17 -12 45 0 17 7 15 9 -12 9 -18 1 -33 -3 -33 -9z"/>
<path d="M1650 7188 c0 -4 14 -22 30 -40 l30 -33 26 28 c34 37 19 57 -42 54
-24 -1 -44 -5 -44 -9z"/>
<path d="M2270 7190 c-18 -11 -4 -41 17 -37 25 4 44 17 38 26 -7 13 -41 19
-55 11z"/>
<path d="M4316 7185 c-9 -25 -7 -208 3 -224 19 -29 30 26 27 130 -2 96 -14
134 -30 94z"/>
<path d="M7298 7186 c-21 -15 -23 -27 -6 -23 7 1 17 -12 23 -30 9 -26 14 -30
28 -22 17 10 24 49 8 49 -5 0 -11 9 -14 20 -6 23 -15 25 -39 6z"/>
<path d="M0 6891 l0 -301 42 0 41 0 -6 143 c-4 78 -10 175 -13 215 -6 62 -5
72 8 67 23 -9 44 21 28 40 -10 12 -16 13 -26 4 -12 -9 -14 -3 -14 33 0 24 5
49 10 54 14 14 -4 30 -43 39 l-27 7 0 -301z"/>
<path d="M1775 7179 c-9 -13 13 -30 35 -26 8 1 15 9 15 17 0 18 -40 26 -50 9z"/>
<path d="M6752 7178 c-14 -14 -16 -38 -3 -38 15 0 30 25 22 38 -5 9 -10 9 -19
0z"/>
<path d="M1490 7161 c0 -20 13 -35 23 -25 7 8 -4 44 -14 44 -5 0 -9 -9 -9 -19z"/>
<path d="M2615 7170 c-3 -5 1 -10 9 -10 9 0 16 5 16 10 0 6 -4 10 -9 10 -6 0
-13 -4 -16 -10z"/>
<path d="M6381 7171 c-16 -11 -6 -16 38 -20 24 -2 32 1 29 11 -5 16 -47 22
-67 9z"/>
<path d="M7245 7161 c-3 -5 -1 -12 5 -16 5 -3 10 1 10 9 0 18 -6 21 -15 7z"/>
<path d="M6216 7151 c-4 -7 -5 -15 -2 -18 9 -9 19 4 14 18 -4 11 -6 11 -12 0z"/>
<path d="M4921 7116 c-7 -8 -12 -30 -10 -48 3 -59 -6 -68 -71 -68 -33 0 -62 5
-65 11 -13 19 -45 -22 -45 -57 0 -46 27 -146 42 -155 19 -12 31 6 20 27 -5 11
-10 47 -11 82 l-2 62 58 -6 c32 -3 64 -8 71 -10 7 -2 22 1 33 6 16 9 19 22 19
79 0 74 -16 105 -39 77z"/>
<path d="M1400 7090 c0 -5 5 -10 11 -10 5 0 7 5 4 10 -3 6 -8 10 -11 10 -2 0
-4 -4 -4 -10z"/>
<path d="M1715 7080 c-10 -11 -29 -20 -42 -20 -34 0 -27 -31 9 -41 32 -8 38
-4 38 32 0 15 6 29 13 32 6 2 9 7 6 11 -3 3 -14 -3 -24 -14z"/>
<path d="M626 7073 c-9 -26 -31 -30 -40 -7 -8 22 -26 7 -26 -22 0 -20 5 -24
29 -24 34 0 54 21 49 52 l-4 23 -8 -22z"/>
<path d="M2005 7078 c-36 -20 -46 -48 -17 -48 28 1 55 26 45 44 -6 11 -12 12
-28 4z"/>
<path d="M3937 7083 c-4 -3 -1 -15 5 -27 17 -32 32 -95 59 -246 14 -78 27
-110 47 -110 12 0 13 8 7 38 -4 20 -10 65 -14 99 -3 34 -12 68 -19 75 -6 6
-12 29 -12 50 0 50 -54 140 -73 121z"/>
<path d="M162 7060 c0 -14 2 -19 5 -12 2 6 2 18 0 25 -3 6 -5 1 -5 -13z"/>
<path d="M5470 7067 c0 -8 3 -17 7 -21 12 -11 34 -85 43 -141 22 -134 36 -192
52 -209 17 -18 18 -18 24 -1 4 9 2 32 -4 49 -7 18 -12 49 -12 69 0 20 -7 56
-15 80 -8 24 -16 67 -19 96 -3 47 -8 55 -35 72 -37 23 -41 23 -41 6z"/>
<path d="M7380 7068 c0 -31 12 -48 35 -48 35 0 40 19 8 31 -15 5 -31 16 -35
22 -5 8 -8 7 -8 -5z"/>
<path d="M2910 7054 c0 -8 5 -12 10 -9 6 4 8 11 5 16 -9 14 -15 11 -15 -7z"/>
<path d="M1795 7050 c-8 -13 3 -50 16 -50 12 0 12 47 0 55 -5 3 -12 1 -16 -5z"/>
<path d="M3258 7049 c-22 -12 -24 -59 -3 -59 16 0 65 46 65 60 0 13 -40 12
-62 -1z"/>
<path d="M7320 7042 c0 -4 10 -32 21 -62 12 -30 24 -76 26 -101 4 -41 1 -51
-25 -80 -26 -29 -38 -34 -93 -41 -35 -3 -82 -10 -103 -15 -39 -8 -67 -35 -53
-50 11 -10 136 -4 158 8 30 15 78 11 90 -9 12 -19 62 -19 86 0 7 6 14 5 18 -2
12 -19 25 1 25 40 0 43 -18 64 -27 31 -3 -14 -13 -21 -29 -21 -28 0 -29 3 -10
33 8 12 18 43 21 69 6 39 4 49 -9 54 -9 4 -16 18 -16 34 0 15 -7 33 -15 40 -9
7 -14 19 -11 25 2 7 -6 22 -20 34 -26 22 -34 26 -34 13z"/>
<path d="M3005 7020 c-3 -11 -2 -27 3 -37 8 -14 12 -12 26 14 14 28 14 32 0
37 -22 8 -22 8 -29 -14z"/>
<path d="M4516 7023 c-8 -21 1 -30 37 -37 30 -5 35 8 13 37 -17 22 -42 22 -50
0z"/>
<path d="M6652 7018 c2 -13 8 -23 13 -23 6 0 11 10 13 23 2 15 -2 22 -13 22
-11 0 -15 -7 -13 -22z"/>
<path d="M2390 7022 c0 -20 -92 -85 -121 -85 -21 0 -29 -5 -29 -18 0 -25 79
-38 92 -15 5 9 14 16 21 16 7 1 25 11 40 24 22 17 28 30 25 51 -3 26 -28 50
-28 27z"/>
<path d="M2930 7002 c0 -16 3 -32 7 -36 15 -14 31 -110 23 -131 -4 -12 -24
-35 -43 -52 -30 -26 -44 -31 -116 -36 -85 -7 -121 -19 -121 -41 0 -20 27 -39
42 -30 6 4 21 8 32 10 105 9 206 36 206 53 0 6 11 21 25 35 36 36 34 96 -7
185 -36 76 -48 87 -48 43z"/>
<path d="M6247 7023 c-3 -3 -1 -17 5 -32 19 -51 11 -127 -19 -172 -40 -60 -39
-58 -57 -120 -20 -71 -20 -99 1 -167 17 -52 17 -55 -2 -68 -10 -8 -35 -14 -56
-14 -24 0 -39 -5 -43 -16 -10 -27 3 -34 70 -34 36 0 64 -4 64 -10 0 -5 6 -10
14 -10 22 0 28 45 11 92 -17 49 -21 218 -5 218 6 0 10 4 10 10 0 5 16 43 36
85 20 42 36 86 36 98 -1 58 -47 158 -65 140z"/>
<path d="M6450 7021 c0 -5 5 -13 10 -16 6 -3 10 -2 10 4 0 5 -4 13 -10 16 -5
3 -10 2 -10 -4z"/>
<path d="M3145 7010 c-9 -15 14 -50 34 -50 27 0 31 10 14 36 -16 25 -37 31
-48 14z"/>
<path d="M1998 6993 c-12 -14 -17 -55 -21 -197 -4 -133 -9 -181 -19 -187 -7
-5 -32 -9 -54 -9 -48 0 -74 -21 -55 -44 9 -11 31 -14 81 -12 38 1 72 5 76 8 3
4 8 60 10 125 2 65 7 162 10 216 7 104 -1 131 -28 100z"/>
<path d="M1393 6973 c-3 -10 -12 -33 -19 -52 -8 -18 -14 -64 -14 -102 0 -62 2
-69 20 -69 21 0 21 2 25 60 4 51 14 102 27 127 6 12 8 29 5 37 -8 21 -36 20
-44 -1z"/>
<path d="M2687 6972 c-18 -20 -23 -67 -9 -76 5 -3 23 11 41 31 25 28 29 38 20
49 -16 19 -33 18 -52 -4z"/>
<path d="M5928 6979 c-23 -13 -23 -55 -1 -63 10 -4 23 1 35 14 13 14 31 20 58
20 49 0 51 12 7 28 -40 14 -76 15 -99 1z"/>
<path d="M7101 6964 c-22 -28 -27 -59 -13 -68 15 -9 73 59 66 77 -9 25 -30 21
-53 -9z"/>
<path d="M1115 6938 c4 -13 9 -49 12 -81 10 -107 -34 -196 -106 -214 -14 -3
-39 -15 -57 -25 -30 -18 -31 -18 -117 12 -83 29 -117 36 -117 25 0 -12 43 -47
62 -50 41 -8 107 -38 112 -50 4 -10 15 -11 48 -4 24 6 47 14 52 20 6 5 18 9
28 9 35 0 65 23 98 73 33 51 34 53 32 156 -1 74 -6 111 -17 128 -20 30 -40 30
-30 1z"/>
<path d="M6518 6946 c-21 -16 -39 -81 -45 -164 l-5 -63 29 3 c30 3 30 4 32 81
1 40 4 47 21 47 25 0 25 22 2 72 -15 32 -19 35 -34 24z"/>
<path d="M4513 6933 c-8 -3 -13 -23 -13 -51 0 -26 -4 -53 -8 -60 -10 -15 -59
-18 -118 -8 -52 9 -57 2 -55 -73 2 -67 22 -130 45 -143 22 -12 34 -2 18 14 -7
7 -12 42 -12 86 0 71 1 73 23 66 12 -3 27 -11 34 -16 7 -6 14 -5 18 2 5 8 10
8 20 0 9 -8 15 -8 20 0 3 5 17 10 29 10 28 0 36 21 36 96 0 52 -16 85 -37 77z"/>
<path d="M872 6913 c-18 -7 -32 -46 -25 -72 7 -26 21 -27 30 -3 12 34 35 53
50 41 19 -16 16 -3 -4 21 -18 20 -27 23 -51 13z"/>
<path d="M1745 6891 c-3 -6 -4 -57 -3 -114 3 -116 1 -120 -70 -157 -33 -17
-44 -19 -59 -9 -15 9 -26 8 -52 -5 -25 -13 -56 -17 -142 -15 -124 2 -148 -8
-96 -38 30 -18 49 -20 148 -18 123 2 149 8 149 33 0 12 3 13 12 4 22 -22 85
-14 112 13 34 33 37 49 39 188 2 89 -1 118 -11 122 -18 7 -20 6 -27 -4z"/>
<path d="M3040 6887 c0 -8 7 -17 15 -21 8 -3 15 -2 15 3 0 5 -7 14 -15 21 -12
10 -15 10 -15 -3z"/>
<path d="M3414 6889 c-3 -6 -1 -16 5 -22 8 -8 11 -5 11 11 0 24 -5 28 -16 11z"/>
<path d="M7443 6884 c-8 -20 13 -42 27 -28 12 12 3 44 -11 44 -5 0 -12 -7 -16
-16z"/>
<path d="M3340 6880 c0 -5 5 -10 10 -10 6 0 10 5 10 10 0 6 -4 10 -10 10 -5 0
-10 -4 -10 -10z"/>
<path d="M3727 6852 c-33 -35 -34 -52 -4 -52 27 0 67 38 67 63 0 26 -33 20
-63 -11z"/>
<path d="M5266 6849 c-30 -24 -35 -59 -8 -59 21 0 72 46 72 65 0 22 -33 18
-64 -6z"/>
<path d="M6854 6823 c-4 -25 -4 -74 -1 -108 6 -75 -5 -95 -66 -126 -32 -17
-45 -19 -59 -10 -14 9 -25 8 -50 -5 -24 -12 -58 -16 -154 -15 -101 2 -124 -1
-124 -12 0 -28 60 -41 177 -41 69 1 118 5 126 13 9 7 31 9 59 5 33 -5 48 -2
60 10 9 9 21 16 27 16 6 0 22 12 36 28 26 26 27 29 20 117 -3 50 -8 101 -10
115 -2 14 -4 30 -4 36 -1 7 -8 14 -15 17 -11 5 -17 -6 -22 -40z"/>
<path d="M2407 6830 c-12 -17 -13 -29 -5 -58 6 -20 8 -60 5 -89 -12 -111 -70
-155 -204 -156 l-81 0 15 -23 c33 -51 203 -38 258 20 41 42 47 67 46 191 -1
66 -6 124 -10 128 -5 5 -15 -1 -24 -13z"/>
<path d="M4100 6831 c0 -18 26 -31 38 -19 19 19 14 28 -13 28 -14 0 -25 -4
-25 -9z"/>
<path d="M7496 6725 c-4 -21 -3 -42 2 -47 6 -6 11 4 14 26 6 50 -8 67 -16 21z"/>
<path d="M6287 6733 c-2 -5 -1 -19 4 -33 7 -23 7 -23 8 8 1 31 -3 40 -12 25z"/>
<path d="M4854 6708 c-3 -13 -16 -36 -26 -51 -17 -23 -25 -27 -48 -22 -40 9
-45 -8 -10 -35 17 -13 30 -29 30 -36 0 -25 36 -15 51 14 8 15 16 29 19 32 11
11 39 103 34 111 -10 18 -43 9 -50 -13z"/>
<path d="M577 6713 c-4 -3 -7 -31 -7 -62 0 -31 -4 -61 -8 -68 -11 -17 -63 -24
-102 -13 -27 8 -38 6 -61 -11 -40 -28 -166 -36 -209 -14 -28 14 -31 14 -37 0
-8 -22 2 -28 66 -48 71 -23 142 -21 195 3 31 14 57 18 95 15 49 -4 86 6 103
30 9 12 10 137 2 159 -6 16 -26 21 -37 9z"/>
<path d="M3250 6711 c0 -5 7 -11 15 -15 9 -3 15 0 15 9 0 8 -7 15 -15 15 -8 0
-15 -4 -15 -9z"/>
<path d="M5750 6710 c-8 -5 -11 -12 -7 -16 18 -18 119 -47 180 -51 69 -5 97 5
97 33 0 11 -21 14 -94 14 -59 0 -106 5 -128 14 -21 9 -39 11 -48 6z"/>
<path d="M1191 6694 c0 -11 3 -14 6 -6 3 7 2 16 -1 19 -3 4 -6 -2 -5 -13z"/>
<path d="M6271 6694 c0 -11 3 -14 6 -6 3 7 2 16 -1 19 -3 4 -6 -2 -5 -13z"/>
<path d="M4950 6680 c0 -5 5 -10 10 -10 6 0 10 5 10 10 0 6 -4 10 -10 10 -5 0
-10 -4 -10 -10z"/>
<path d="M3637 6620 c-16 -17 -50 -36 -79 -45 -63 -18 -75 -19 -81 -2 -4 8 -6
7 -6 -4 -1 -9 17 -22 48 -33 46 -16 52 -16 105 -1 31 9 56 22 56 29 0 7 9 21
20 31 11 10 20 14 20 9 0 -12 90 -44 124 -44 21 0 26 5 26 24 0 27 -27 41 -60
31 -20 -6 -97 12 -114 27 -17 14 -30 9 -59 -22z"/>
<path d="M7382 6638 c-7 -7 -12 -21 -12 -31 0 -34 -32 -75 -73 -93 -30 -14
-63 -18 -134 -17 l-93 1 24 -19 c13 -11 39 -22 56 -26 17 -3 34 -12 37 -19 7
-19 42 -17 83 4 19 11 40 17 45 15 15 -5 82 58 90 85 3 12 11 22 16 22 12 0
12 47 -1 71 -12 22 -21 24 -38 7z"/>
<path d="M2966 6597 c-10 -23 -21 -49 -25 -57 -15 -32 -81 -53 -165 -53 -45 0
-91 3 -103 7 -17 5 -22 4 -18 -6 18 -46 190 -76 250 -44 36 19 51 20 59 4 3
-7 4 -4 1 8 -3 12 5 33 20 54 24 33 32 80 19 114 -10 25 -18 19 -38 -27z"/>
<path d="M5182 6620 c-13 -21 -82 -60 -106 -60 -8 0 -18 -5 -22 -11 -20 -33
90 -40 124 -9 12 12 22 17 22 13 0 -4 7 3 16 15 13 19 22 22 47 16 38 -8 59
-28 51 -47 -3 -8 -1 -18 5 -21 10 -7 41 19 41 35 0 5 9 9 20 9 24 0 37 27 22
42 -7 7 -34 11 -61 9 -30 -1 -62 4 -80 14 -40 20 -64 19 -79 -5z"/>
<path d="M4140 6596 c0 -9 5 -16 10 -16 6 0 10 -16 10 -35 0 -29 -6 -38 -38
-59 -43 -27 -72 -53 -72 -66 0 -21 36 -18 82 7 58 32 72 53 63 99 -7 38 -55
99 -55 70z"/>
<path d="M3305 6590 c-9 -14 18 -50 37 -50 23 0 23 22 0 43 -21 19 -28 21 -37
7z"/>
<path d="M3070 6574 c0 -9 7 -14 17 -12 25 5 28 28 4 28 -12 0 -21 -6 -21 -16z"/>
<path d="M5684 6568 c4 -13 10 -30 13 -40 3 -11 -12 -28 -51 -57 -60 -44 -68
-64 -36 -81 15 -8 26 -7 45 6 33 21 33 1 1 -31 -23 -23 -26 -24 -53 -10 -15 8
-49 15 -75 15 -47 0 -47 0 -42 29 4 16 1 32 -5 35 -7 5 -11 -5 -11 -29 0 -35
-1 -36 -37 -35 -21 0 -67 -5 -103 -11 -74 -12 -149 -14 -234 -6 -70 8 -90 20
-73 47 15 25 1 38 -23 22 -28 -17 -48 -15 -53 6 -3 11 -5 9 -6 -8 -1 -14 -5
-31 -10 -38 -11 -18 -108 -27 -127 -11 -11 9 -17 9 -28 0 -21 -18 -139 -23
-183 -8 -24 8 -56 10 -88 6 -85 -12 -115 -11 -115 6 0 8 3 14 8 14 31 -5 63
23 80 72 30 88 -4 108 -47 27 -24 -45 -55 -66 -67 -47 -8 13 -34 11 -34 -3 0
-7 12 -22 27 -34 l27 -21 -28 -24 -28 -25 41 -54 c23 -30 41 -58 41 -62 0 -5
17 -37 38 -71 22 -34 54 -89 72 -122 18 -33 39 -64 47 -68 8 -5 29 -39 47 -76
18 -37 41 -81 52 -97 11 -16 25 -40 32 -54 7 -14 28 -46 47 -73 20 -26 44 -69
54 -95 11 -26 33 -73 50 -106 46 -87 43 -94 -44 -108 -27 -4 -72 -13 -100 -18
-27 -6 -70 -13 -95 -17 -25 -3 -54 -12 -65 -19 -11 -8 -31 -14 -45 -14 -14 0
-30 -4 -35 -8 -6 -5 -37 -17 -70 -27 -33 -11 -64 -22 -70 -26 -5 -4 -26 -10
-45 -14 -19 -4 -49 -18 -66 -31 -17 -13 -36 -24 -42 -24 -13 0 -79 -35 -102
-54 -8 -7 -23 -16 -32 -19 -10 -4 -18 -11 -18 -16 0 -5 -8 -12 -17 -15 -10 -3
-50 -39 -89 -78 -74 -76 -113 -114 -152 -151 -25 -24 -109 -191 -147 -291 -22
-59 -24 -80 -24 -221 0 -153 9 -205 34 -205 17 0 40 -30 53 -68 6 -18 26 -52
43 -75 38 -49 159 -167 172 -167 5 0 22 -14 38 -31 25 -27 39 -33 93 -38 52
-6 70 -13 99 -38 28 -24 49 -33 94 -38 83 -10 127 -22 155 -44 14 -11 40 -20
59 -19 70 1 206 -10 274 -21 124 -21 249 -32 350 -32 80 0 206 31 247 61 15
11 34 20 41 20 18 0 51 17 94 47 44 32 77 34 81 6 3 -18 -2 -23 -18 -23 -32 0
-59 -39 -60 -85 -1 -41 -28 -133 -47 -157 -5 -7 -13 -20 -16 -29 -10 -29 -97
-138 -115 -144 -21 -7 -63 -73 -86 -137 -9 -26 -28 -62 -41 -80 -14 -18 -29
-44 -35 -57 -6 -13 -39 -55 -73 -94 -34 -38 -69 -82 -77 -97 -8 -15 -25 -46
-37 -68 -13 -23 -29 -45 -36 -49 -8 -4 -22 -25 -31 -45 -10 -20 -48 -68 -85
-107 -37 -39 -80 -94 -96 -123 -15 -29 -53 -82 -84 -117 -31 -36 -65 -76 -76
-89 -11 -14 -59 -64 -106 -111 -48 -47 -95 -101 -105 -119 -10 -17 -26 -34
-35 -37 -9 -3 -21 -17 -27 -30 -6 -14 -17 -25 -24 -25 -7 0 -35 -31 -63 -68
-58 -78 -64 -86 -148 -172 -129 -133 -214 -201 -260 -205 -19 -2 -46 -11 -60
-20 -18 -12 -59 -18 -151 -22 l-126 -6 -73 49 c-62 42 -151 108 -167 124 -3 3
-18 12 -33 20 -16 8 -41 28 -55 45 -15 16 -39 37 -53 46 -13 9 -45 43 -69 75
-25 32 -61 73 -80 90 -20 18 -46 53 -58 78 -13 25 -30 50 -38 54 -16 9 -32 34
-58 91 -9 18 -29 48 -44 65 -15 18 -34 45 -40 62 -7 16 -29 40 -48 54 -72 51
-112 85 -118 100 -3 8 -22 40 -41 70 -18 30 -41 69 -49 85 -19 38 -51 75 -65
75 -6 0 -17 12 -24 27 -6 16 -18 35 -26 43 -8 8 -30 39 -49 70 -19 30 -48 70
-63 88 -16 18 -32 44 -35 57 -3 14 -9 25 -13 25 -3 0 -15 17 -25 38 -10 20
-22 44 -27 52 -5 8 -19 33 -30 55 -11 22 -33 63 -48 90 -16 28 -39 70 -51 95
-39 80 -53 103 -84 136 -59 61 -123 157 -167 251 -31 67 -77 143 -92 154 -12
9 2 135 20 177 8 19 13 62 12 103 -2 61 1 73 22 97 13 15 27 28 32 30 4 2 7
20 7 40 1 21 10 78 21 127 11 50 24 124 30 165 5 41 21 109 34 150 48 152 65
210 65 227 0 10 7 27 15 37 8 11 15 39 15 62 0 24 4 45 9 48 5 3 12 21 15 40
4 20 13 48 21 63 8 15 15 38 15 50 0 12 5 25 10 28 6 3 10 26 10 50 0 31 8 55
25 81 14 20 25 49 25 63 1 14 10 51 21 81 11 30 29 86 39 123 11 37 28 80 38
95 11 15 27 54 37 87 9 33 29 80 45 105 57 92 70 119 64 147 -6 31 26 75 62
87 13 4 28 24 39 51 11 30 27 51 45 60 36 18 116 20 123 3 4 -10 8 -10 16 2 7
11 40 15 138 17 142 4 180 7 368 29 72 8 173 16 226 18 53 2 107 9 119 16 18
10 31 10 62 -1 31 -10 43 -10 62 0 16 9 40 11 74 6 29 -4 52 -3 56 3 3 5 59
10 123 11 166 1 290 8 302 16 17 10 13 32 -6 40 -41 17 -1292 21 -1387 4 -40
-6 -99 -8 -149 -4 -114 9 -165 9 -292 -1 -147 -11 -335 -10 -343 2 -9 12 -32
16 -32 5 0 -13 -89 -22 -111 -11 -10 6 -19 17 -19 25 0 8 -4 15 -10 15 -5 0
-10 -8 -10 -18 0 -20 -70 -44 -91 -31 -17 10 -156 2 -179 -11 -27 -14 -173
-13 -188 2 -9 9 -12 9 -12 0 0 -7 -10 -9 -29 -6 -16 4 -72 -2 -125 -11 -65
-12 -119 -15 -168 -11 -147 12 -218 12 -218 -1 0 -8 -22 -12 -71 -12 -39 0
-73 -1 -75 -3 -8 -9 -16 -148 -10 -172 9 -36 23 -25 31 25 5 30 13 43 32 50
35 13 86 11 108 -5 14 -10 26 -11 43 -5 35 14 212 -1 244 -19 26 -15 30 -15
56 0 16 10 49 17 73 18 178 1 226 5 243 23 10 9 22 17 27 17 15 0 10 -84 -7
-121 -18 -40 -16 -37 -71 -120 -24 -35 -43 -72 -43 -82 0 -10 -9 -35 -20 -57
-11 -22 -20 -48 -20 -58 0 -17 -114 -132 -131 -132 -4 0 -25 -24 -46 -52 -21
-29 -56 -72 -78 -94 -22 -23 -62 -67 -90 -98 -27 -31 -70 -70 -95 -88 -25 -18
-47 -35 -50 -38 -12 -15 -126 -70 -157 -76 -51 -10 -65 8 -61 80 1 34 -1 66
-4 71 -4 6 -2 76 4 155 12 187 13 319 1 331 -15 15 -32 -79 -43 -231 -21 -288
-38 -458 -54 -534 -9 -43 -20 -135 -26 -205 -5 -69 -16 -202 -25 -296 -9 -93
-20 -222 -25 -285 -5 -63 -16 -189 -25 -280 -42 -458 -46 -565 -27 -875 6
-104 16 -282 21 -395 6 -113 16 -244 21 -291 6 -47 10 -115 10 -152 l0 -67
-111 0 -112 0 6 -30 c4 -16 36 -75 73 -132 90 -139 149 -230 159 -247 14 -24
34 -281 24 -307 -12 -34 -45 -107 -84 -189 -60 -126 -57 -140 30 -136 32 1 63
-3 71 -10 17 -14 19 -110 2 -127 -7 -7 -41 -12 -85 -12 -106 0 -173 28 -245
103 l-58 59 0 -50 c0 -61 18 -97 81 -166 73 -81 130 -108 276 -135 69 -13 73
-20 74 -140 0 -58 4 -155 9 -216 6 -60 13 -165 16 -233 4 -67 12 -129 18 -137
12 -15 100 -19 376 -16 80 1 327 -3 550 -8 338 -9 424 -8 520 4 63 8 160 20
215 26 119 13 142 23 150 60 4 15 24 44 46 63 31 29 39 43 39 71 0 19 5 35 10
35 6 0 10 6 10 12 0 11 27 73 66 151 8 16 14 35 14 43 0 25 71 114 97 120 14
4 41 2 61 -4 19 -6 39 -9 43 -6 4 2 20 -1 36 -8 45 -19 162 -40 240 -43 64 -2
74 0 94 21 22 23 22 26 11 146 -15 148 -15 242 -3 286 7 21 6 53 -1 90 -6 31
-14 86 -19 122 -5 36 -11 83 -15 105 -5 39 -4 41 28 53 19 6 44 12 55 12 21 0
133 -87 133 -103 0 -15 43 -47 100 -74 84 -39 110 -44 160 -34 160 34 198 41
221 41 14 0 30 5 36 11 6 6 23 9 39 7 27 -3 29 -5 27 -48 -3 -69 -18 -181 -31
-220 -17 -56 -44 -224 -38 -240 8 -21 -10 -184 -27 -250 l-14 -55 -71 0 c-73
0 -99 -11 -89 -39 8 -20 98 -46 159 -46 26 0 67 -4 90 -9 24 -5 62 -14 85 -19
28 -6 81 -4 160 5 65 8 138 16 163 19 80 8 264 35 301 45 20 5 52 9 71 9 58 0
97 11 101 29 3 15 -19 69 -34 81 -4 3 -10 16 -14 30 -4 14 -18 48 -30 75 -12
28 -25 57 -28 65 -3 8 -14 38 -25 66 l-21 52 44 31 c52 37 55 38 55 9 0 -29 9
-42 38 -57 15 -8 27 -9 35 -3 7 6 19 11 28 13 15 4 209 172 290 251 16 16 33
28 39 28 5 0 10 5 10 10 0 6 5 10 10 10 19 0 10 -15 -41 -70 -28 -30 -74 -84
-103 -120 -30 -36 -63 -74 -76 -85 -72 -64 -104 -162 -60 -185 25 -13 43 -4
89 44 19 20 40 36 46 36 6 0 31 19 56 43 96 91 255 233 318 283 32 25 50 42
99 89 23 21 42 34 42 27 0 -7 -78 -91 -172 -186 -320 -323 -428 -447 -428
-494 0 -14 9 -26 25 -34 26 -12 12 -20 190 117 59 45 116 91 150 120 44 38 60
50 144 115 46 36 102 78 124 94 23 15 49 39 60 52 10 14 47 43 80 66 34 23 66
47 70 55 9 15 89 63 105 63 24 0 11 -38 -20 -63 -18 -14 -56 -47 -84 -74 -28
-27 -86 -80 -130 -118 -78 -68 -117 -103 -218 -200 -29 -27 -93 -87 -142 -132
-110 -103 -144 -136 -144 -144 0 -4 13 -12 30 -19 22 -9 37 -9 61 -1 25 8 34
8 46 -4 8 -8 32 -15 54 -15 35 0 50 8 107 56 37 31 69 61 70 65 2 5 8 9 13 9
9 0 21 10 113 90 23 20 58 48 78 63 21 15 52 41 70 58 18 17 56 46 83 64 28
19 59 42 70 52 33 31 94 65 104 58 13 -8 61 -103 61 -121 0 -7 -19 -26 -42
-41 -51 -33 -74 -51 -99 -77 -10 -11 -29 -26 -42 -35 -13 -9 -51 -40 -83 -69
-32 -30 -77 -67 -100 -82 -22 -16 -57 -45 -78 -66 -45 -45 -36 -64 31 -64 47
0 46 -1 182 112 131 109 168 139 226 183 66 50 75 53 75 26 0 -18 -30 -48
-107 -104 -202 -147 -267 -202 -258 -217 3 -5 29 -10 57 -10 28 0 78 -4 112
-10 33 -5 133 -17 221 -25 88 -9 176 -20 196 -26 20 -5 57 -9 83 -9 26 0 77
-4 114 -10 37 -5 110 -14 162 -20 52 -6 127 -17 165 -24 39 -8 122 -24 185
-36 217 -41 229 -47 230 -117 0 -12 5 -34 12 -48 l11 -25 174 0 175 0 -6 27
c-3 16 -8 50 -12 76 -7 49 -28 80 -69 98 -11 5 -47 29 -80 54 -33 25 -67 48
-75 52 -8 3 -25 15 -37 26 -17 15 -44 21 -135 28 -62 4 -124 6 -138 3 -19 -4
-21 -3 -10 5 10 7 14 27 12 77 -2 37 -5 71 -8 76 -12 20 -44 4 -109 -57 -38
-36 -83 -71 -100 -78 -32 -15 -135 -12 -135 4 0 5 5 9 11 9 5 0 8 4 5 8 -2 4
63 53 146 107 82 55 154 107 158 115 13 25 -3 121 -22 133 -13 8 -24 4 -50
-19 -19 -16 -45 -36 -58 -44 -12 -8 -49 -36 -82 -63 -34 -26 -64 -47 -68 -47
-4 0 -20 -11 -36 -25 -16 -14 -51 -41 -79 -61 -27 -19 -72 -50 -98 -70 -45
-33 -52 -35 -129 -35 -44 0 -83 2 -86 5 -12 12 56 70 158 133 57 36 125 82
151 102 57 44 148 101 160 101 5 0 9 5 9 10 0 6 4 10 10 10 5 0 38 17 72 38
35 20 75 44 91 51 35 19 44 53 22 87 -13 21 -22 24 -48 20 -24 -5 -27 -4 -12
3 34 14 47 38 47 81 -1 83 -10 81 -200 -55 -234 -168 -298 -215 -352 -255
-148 -112 -229 -170 -234 -170 -3 0 -6 13 -6 29 0 24 11 37 73 80 72 52 185
138 222 169 32 27 234 152 245 152 6 0 13 7 16 15 4 8 12 15 20 15 8 0 14 5
14 10 0 6 9 10 20 10 11 0 20 4 20 10 0 5 15 16 33 25 17 9 49 31 70 50 34 29
38 38 35 72 -4 46 -29 54 -68 23 -33 -26 -250 -170 -257 -170 -3 0 -35 -20
-72 -44 -36 -24 -77 -49 -91 -56 -14 -7 -34 -23 -45 -35 -39 -42 -277 -206
-291 -201 -15 6 -20 46 -5 46 5 0 36 24 69 53 33 28 81 68 107 87 25 19 58 44
72 55 25 19 92 73 196 160 27 22 68 54 92 70 24 17 72 52 107 78 176 133 173
130 160 182 -12 44 -36 42 -100 -9 -125 -99 -149 -117 -190 -145 -43 -29 -100
-75 -151 -120 -14 -13 -37 -31 -51 -40 -14 -9 -34 -23 -45 -33 -185 -152 -321
-258 -334 -258 -19 0 -72 105 -64 126 3 7 21 24 41 36 21 12 39 25 42 28 6 7
137 97 183 125 18 11 62 43 99 70 37 28 90 64 118 80 29 17 69 40 89 52 20 13
46 28 59 34 12 7 22 15 22 18 0 3 52 33 116 66 131 68 164 94 164 128 0 34
-24 64 -41 50 -8 -6 -63 -37 -124 -68 -60 -31 -124 -68 -142 -81 -17 -13 -34
-24 -37 -24 -4 0 -58 -34 -121 -75 -63 -41 -118 -75 -122 -75 -5 0 -29 -17
-54 -37 -26 -21 -66 -50 -90 -65 -24 -15 -84 -57 -134 -93 -113 -81 -113 -81
-133 -61 -15 15 -15 19 -1 42 8 13 58 61 110 106 52 44 124 108 160 142 37 33
106 95 155 136 48 41 131 113 184 160 52 47 130 116 173 154 l77 68 56 -28
c47 -24 57 -26 65 -13 9 13 3 447 -7 496 -4 22 -107 102 -178 138 -21 11 -51
32 -67 47 -15 16 -33 28 -39 28 -28 0 -112 109 -160 206 -27 55 -58 108 -70
119 -11 10 -20 31 -20 46 0 41 -47 134 -75 149 -18 10 -25 22 -25 43 0 26 -45
135 -97 232 -9 17 -27 53 -40 80 -14 28 -31 62 -39 77 -8 14 -14 36 -14 48 0
12 -13 34 -29 49 -33 31 -91 138 -91 168 0 17 7 20 43 19 30 -1 44 -6 49 -18
14 -35 51 -12 51 30 0 38 -25 77 -60 94 -30 14 -33 34 -17 120 6 35 4 39 -25
55 -29 16 -32 22 -30 63 4 74 0 86 -30 116 -21 22 -32 46 -42 97 -7 37 -16 67
-20 67 -12 0 -49 85 -49 114 0 35 19 30 40 -9 8 -16 25 -38 38 -48 12 -10 22
-26 22 -35 0 -9 15 -42 33 -72 18 -30 41 -75 51 -100 10 -25 22 -50 27 -56 29
-35 114 -228 185 -415 7 -21 22 -52 32 -70 10 -19 22 -51 26 -73 4 -21 11 -46
16 -55 8 -14 22 -69 37 -144 3 -17 -1 -37 -12 -53 -11 -17 -15 -36 -11 -55 3
-16 9 -44 12 -61 8 -41 41 -78 69 -78 12 0 38 12 57 28 19 15 47 36 63 47 24
18 64 49 151 120 22 17 28 18 57 5 17 -7 52 -14 77 -14 38 -1 45 -4 50 -25 5
-24 34 -50 44 -40 3 2 1 153 -4 334 -5 182 -10 527 -10 768 0 359 -3 444 -14
472 -8 19 -19 35 -24 35 -5 0 -53 38 -105 85 -69 62 -103 101 -123 140 -16 30
-33 55 -40 55 -11 0 -85 83 -93 104 -4 11 -82 103 -138 163 -25 26 -36 32 -50
25 -24 -13 -102 42 -125 87 -9 18 -25 43 -36 55 -10 11 -40 54 -66 93 -26 40
-60 85 -75 100 -14 16 -44 55 -65 87 -22 33 -66 91 -100 129 -33 39 -67 84
-76 101 -9 17 -25 45 -36 63 -22 38 -13 54 17 27 17 -15 37 -19 93 -19 97 -1
186 -14 213 -32 15 -10 40 -14 73 -11 27 1 51 -1 53 -6 2 -5 28 -11 58 -12 96
-5 198 -21 212 -32 7 -6 31 -13 53 -16 21 -2 65 -8 97 -11 31 -4 57 -12 57
-18 0 -24 103 -214 129 -237 16 -14 38 -47 51 -75 21 -47 22 -49 31 -26 5 13
6 124 3 262 -7 231 -8 239 -30 260 -16 15 -29 19 -41 14 -26 -11 -84 -5 -106
10 -16 11 -25 11 -55 -2 -24 -10 -48 -13 -72 -8 -19 4 -71 9 -115 11 -44 2
-105 8 -135 14 -30 5 -104 14 -165 20 -60 6 -114 15 -119 20 -6 6 -25 10 -42
10 -24 0 -39 8 -54 28 -40 50 -80 47 -80 -8 0 -13 -10 -19 -47 -23 -26 -3 -53
-3 -60 0 -20 8 -15 44 9 70 17 19 20 26 9 32 -7 5 -11 14 -10 22 5 24 -13 63
-39 87 l-25 24 7 -24z m-922 -292 c8 -6 33 -39 57 -74 23 -35 49 -66 56 -68 8
-3 28 -33 46 -67 17 -33 38 -67 45 -75 8 -7 14 -18 14 -24 0 -6 14 -26 31 -46
17 -20 38 -50 45 -68 7 -17 26 -46 41 -64 35 -42 113 -215 113 -250 0 -17 14
-44 40 -73 24 -27 40 -55 40 -71 0 -14 13 -44 28 -68 33 -50 58 -115 67 -176
4 -26 14 -46 25 -52 12 -6 23 -30 30 -67 7 -32 38 -112 70 -178 108 -224 122
-258 127 -320 4 -38 12 -67 24 -80 27 -31 59 -121 59 -168 0 -24 4 -47 9 -53
6 -5 17 -45 26 -89 9 -44 20 -84 23 -90 4 -5 8 -18 9 -27 2 -10 12 -35 23 -55
11 -21 20 -44 20 -51 0 -7 8 -29 19 -50 12 -25 20 -70 24 -137 5 -67 13 -113
26 -140 42 -87 51 -118 51 -164 0 -36 7 -58 27 -87 22 -32 28 -52 30 -114 2
-41 0 -80 -4 -86 -10 -12 -105 -43 -115 -37 -5 2 -8 46 -8 97 0 50 -4 96 -9
102 -12 12 -41 164 -41 215 0 61 -32 191 -56 229 -22 36 -31 66 -59 205 -36
176 -48 221 -66 253 -11 18 -19 42 -19 53 0 17 -46 166 -69 224 -5 11 -16 47
-27 80 -10 33 -21 67 -25 75 -27 63 -45 101 -65 142 -13 27 -24 61 -24 78 0
16 -4 30 -10 30 -5 0 -10 6 -10 14 0 7 -9 34 -20 59 -11 25 -18 52 -15 60 4 8
-4 21 -19 31 -15 9 -26 23 -26 30 0 8 -11 37 -25 64 -14 28 -25 59 -25 69 0
11 -9 28 -20 38 -26 24 -71 101 -75 128 -2 25 -42 104 -56 113 -5 3 -9 12 -9
21 0 9 -11 31 -25 49 -14 18 -25 38 -25 45 0 7 -14 42 -31 78 -17 36 -35 75
-40 86 -5 11 -23 40 -39 65 -16 25 -39 63 -51 84 -12 22 -28 46 -35 54 -8 7
-26 39 -41 70 -14 31 -29 59 -33 62 -4 3 -19 28 -33 56 -15 29 -33 58 -40 66
-8 8 -17 24 -21 35 -6 19 -3 22 22 21 16 -1 35 -6 44 -12z m539 -11 c24 -14
189 -205 189 -219 0 -6 12 -22 25 -35 14 -13 25 -29 25 -37 0 -8 4 -14 10 -14
5 0 29 -26 52 -57 69 -93 81 -108 101 -120 7 -5 25 -35 42 -68 16 -33 43 -74
60 -91 34 -35 85 -99 99 -123 5 -9 12 -18 16 -21 4 -3 20 -29 35 -59 14 -29
37 -65 50 -79 13 -14 33 -51 44 -82 12 -31 32 -70 46 -86 29 -33 95 -163 95
-187 0 -9 5 -19 10 -22 16 -10 80 -153 80 -178 0 -13 -13 -36 -30 -52 -16 -16
-30 -35 -30 -42 0 -7 20 -44 45 -82 25 -38 45 -73 45 -76 0 -4 11 -20 25 -37
14 -16 25 -38 25 -48 0 -10 7 -31 15 -47 8 -15 28 -62 45 -103 17 -41 51 -116
75 -166 25 -50 45 -98 45 -107 0 -8 13 -44 29 -79 36 -77 51 -131 51 -180 0
-27 13 -59 46 -112 26 -43 44 -82 41 -90 -8 -21 -56 -32 -76 -17 -9 6 -24 14
-33 17 -23 8 -51 55 -73 121 -9 29 -21 55 -26 59 -11 6 -48 78 -60 114 -12 39
-49 143 -58 165 -5 11 -21 52 -36 90 -15 39 -38 93 -51 122 -13 28 -24 56 -24
61 0 5 -6 15 -14 21 -8 6 -19 32 -25 57 -7 25 -20 58 -30 72 -33 49 -55 87
-74 127 -30 63 -35 77 -49 125 -7 25 -29 68 -50 95 -21 28 -38 57 -38 66 0 9
-17 40 -39 70 -21 30 -46 71 -56 92 -10 22 -38 69 -62 105 -24 37 -46 78 -50
92 -10 43 -40 94 -72 124 -17 17 -31 34 -31 39 0 6 -10 24 -23 41 -13 17 -39
63 -59 103 -38 73 -166 273 -212 329 -13 17 -30 42 -37 57 -7 15 -16 27 -21
27 -4 0 -16 17 -26 37 -9 20 -36 58 -59 83 -50 54 -85 101 -113 152 -35 64
-31 67 68 65 48 -2 94 -7 103 -12z m-3281 -103 c0 -19 -8 -46 -18 -60 -11 -15
-34 -58 -53 -97 -18 -38 -36 -72 -40 -75 -17 -13 -119 -165 -119 -176 0 -8 -4
-14 -9 -14 -5 0 -12 -11 -15 -25 -3 -13 -15 -32 -25 -42 -22 -22 -71 -113 -90
-168 -8 -22 -26 -56 -42 -75 -15 -20 -37 -67 -49 -105 -39 -132 -52 -170 -61
-190 -17 -39 -41 -119 -45 -151 -2 -18 -20 -69 -39 -114 -19 -45 -35 -89 -35
-97 0 -8 -9 -27 -19 -42 -11 -15 -20 -43 -20 -62 1 -51 -10 -98 -37 -156 -13
-28 -24 -58 -24 -65 0 -8 -11 -43 -25 -78 -14 -35 -25 -73 -25 -84 0 -12 -11
-48 -24 -81 -14 -33 -32 -87 -41 -120 -19 -68 -36 -115 -63 -177 -48 -109 -81
-240 -69 -272 6 -15 -14 -91 -34 -127 -6 -12 -18 -54 -26 -93 -8 -39 -22 -87
-31 -106 -28 -60 -29 -74 -14 -113 11 -30 13 -56 7 -115 -5 -42 -9 -95 -10
-117 -3 -63 -4 -65 -25 -65 -24 0 -80 73 -80 105 0 22 -88 115 -110 115 -5 0
-10 18 -10 41 0 43 -10 69 -45 111 -34 40 -27 141 14 228 19 39 31 81 31 106
0 27 8 51 25 74 21 29 25 45 25 106 0 78 15 150 49 227 12 27 21 60 21 73 0
14 10 50 21 82 12 31 36 98 53 147 18 50 44 115 58 145 14 30 31 75 37 100 13
51 43 122 107 257 24 50 44 96 44 100 0 5 9 28 20 51 11 22 20 47 20 54 0 7
30 74 67 148 36 74 74 151 82 170 9 19 19 37 22 40 4 3 10 16 14 30 4 14 23
46 41 73 19 26 34 51 34 56 0 24 116 220 145 246 13 11 34 40 46 65 13 25 26
47 29 50 4 3 19 23 33 45 15 22 40 58 57 80 16 22 44 62 62 88 36 55 83 82
127 72 16 -3 32 -2 35 4 4 5 15 9 26 8 16 -1 20 -9 20 -35z m2925 -924 c14 -6
25 -20 25 -30 0 -10 7 -21 15 -24 8 -4 15 -16 15 -28 0 -12 7 -31 15 -42 8
-10 15 -26 15 -35 0 -8 11 -30 24 -47 14 -19 26 -53 29 -83 4 -28 14 -63 23
-76 23 -36 2 -55 -26 -25 -12 12 -25 22 -30 22 -5 0 -12 10 -16 22 -13 43 -58
79 -103 84 -23 2 -50 8 -61 14 -10 5 -34 10 -52 10 -18 0 -49 5 -68 10 -36 11
-47 8 -140 -32 -75 -32 -75 -32 -73 -77 2 -41 1 -42 -50 -66 -29 -13 -67 -38
-86 -57 -18 -18 -48 -42 -66 -53 -77 -48 -140 -126 -151 -188 -4 -17 -22 -66
-42 -107 -20 -43 -37 -97 -40 -126 -4 -50 -3 -52 55 -120 86 -100 121 -127
188 -147 33 -11 80 -25 105 -33 96 -30 367 -3 459 47 20 10 40 19 45 19 8 0
47 36 143 129 48 48 93 129 93 171 0 20 4 40 9 45 6 6 11 42 13 80 2 39 8 70
13 70 15 0 105 -186 105 -218 0 -15 9 -47 19 -71 11 -23 25 -64 31 -92 7 -27
21 -68 32 -91 18 -38 30 -92 44 -188 7 -44 -13 -72 -55 -80 -12 -2 -33 -17
-46 -33 -14 -17 -37 -33 -52 -37 -16 -4 -36 -15 -46 -26 -10 -10 -25 -19 -33
-19 -9 0 -28 -9 -43 -19 -37 -26 -275 -38 -327 -16 -19 8 -47 12 -62 9 -38 -8
-325 36 -361 55 -11 6 -32 11 -48 11 -15 0 -46 9 -68 19 -23 10 -62 21 -87 25
-26 4 -57 15 -70 24 -13 10 -43 28 -68 41 -81 44 -140 91 -140 113 0 5 -11 13
-25 18 -17 7 -25 17 -25 34 0 14 -4 28 -10 31 -5 3 -10 15 -10 26 0 11 -11 37
-25 57 -14 20 -25 46 -25 57 0 11 -7 39 -15 61 -22 65 -18 156 11 210 13 25
24 52 24 60 0 9 6 28 14 42 8 15 22 45 32 67 9 22 28 53 40 68 13 16 24 33 24
38 0 8 26 42 58 75 6 7 12 16 12 21 0 23 131 139 213 190 121 75 180 100 271
114 33 5 64 13 71 19 6 5 31 12 55 16 25 4 63 15 85 24 23 10 61 21 85 25 25
4 52 11 60 16 21 12 45 11 75 -3z m596 -104 c23 -42 33 -91 20 -99 -6 -3 -11
0 -11 7 0 7 -12 36 -25 63 -14 28 -25 54 -25 58 0 18 25 0 41 -29z m-4641 -89
c0 -8 -4 -15 -10 -15 -5 0 -10 7 -10 15 0 8 5 15 10 15 6 0 10 -7 10 -15z
m-83 -162 c2 -6 -5 -17 -16 -23 -19 -10 -21 -8 -21 15 0 19 5 26 17 23 9 -2
18 -8 20 -15z m4037 -135 c63 -52 76 -69 89 -112 32 -106 39 -153 28 -193 -6
-21 -11 -50 -11 -65 0 -15 -11 -47 -24 -71 -13 -25 -28 -59 -34 -75 -22 -64
-228 -128 -324 -101 -24 7 -49 11 -57 10 -8 -1 -24 2 -35 7 -12 6 -41 20 -66
31 -36 16 -51 31 -72 73 -27 52 -36 115 -20 134 5 5 15 25 23 44 13 34 66 120
80 130 3 3 16 24 27 47 22 42 65 83 88 83 7 0 15 8 19 18 6 18 68 62 88 62 7
0 26 9 42 19 52 34 78 27 159 -41z m-3294 -280 c0 -111 -1 -114 -36 -178 -38
-68 -50 -107 -64 -205 -5 -33 -13 -85 -17 -115 -5 -30 -12 -61 -17 -69 -5 -7
-19 -66 -31 -130 -12 -64 -30 -141 -39 -171 -9 -30 -22 -100 -27 -155 -6 -55
-17 -107 -24 -115 -25 -28 -43 -105 -48 -200 -2 -52 -1 -106 2 -119 13 -49 0
-92 -32 -111 -29 -18 -31 -18 -86 2 -31 12 -58 25 -59 30 -2 5 -14 21 -26 36
-48 57 -43 104 38 337 60 174 96 299 96 331 0 17 8 42 18 55 11 13 22 40 25
61 3 20 16 60 30 90 13 29 30 76 36 103 12 50 46 144 82 222 15 32 18 53 13
97 -6 52 -5 59 19 84 14 15 46 58 71 96 34 52 44 75 39 94 -5 22 8 41 30 42 4
0 7 -51 7 -112z m-820 32 c0 -5 -4 -10 -10 -10 -5 0 -10 5 -10 10 0 6 5 10 10
10 6 0 10 -4 10 -10z m6020 -204 c0 -11 -19 -15 -25 -6 -3 5 1 10 9 10 9 0 16
-2 16 -4z m-910 -71 c0 -14 -4 -25 -10 -25 -5 0 -10 11 -10 25 0 14 5 25 10
25 6 0 10 -11 10 -25z m-4760 -1474 c0 -15 -41 -71 -52 -71 -15 0 -82 39 -77
45 2 2 26 12 54 23 46 18 75 19 75 3z m317 -13 c20 -22 43 -61 43 -72 0 -16
-22 -3 -31 18 -7 14 -22 27 -35 30 -23 6 -31 25 -17 39 11 11 18 8 40 -15z
m-709 -113 c26 -14 53 -25 59 -25 20 0 15 -30 -4 -36 -10 -3 -26 -10 -35 -15
-23 -12 -58 -12 -58 1 0 6 -7 10 -16 10 -17 0 -53 38 -54 56 0 16 22 34 42 34
11 0 40 -11 66 -25z m439 -90 c23 -23 12 -25 -22 -4 -22 14 -25 19 -12 19 10
0 25 -7 34 -15z m4013 -65 c0 -5 -5 -10 -11 -10 -5 0 -7 5 -4 10 3 6 8 10 11
10 2 0 4 -4 4 -10z m-2735 -280 c3 -6 -1 -13 -10 -16 -19 -8 -30 0 -20 15 8
14 22 14 30 1z m-109 -47 c-7 -17 -8 -17 -17 0 -12 21 -2 44 13 29 6 -6 8 -19
4 -29z m3634 -31 c0 -17 -27 -45 -34 -34 -3 6 1 18 10 26 17 18 24 20 24 8z
m251 -28 c9 -11 26 -14 57 -12 25 2 46 -1 48 -7 2 -5 -20 -25 -49 -43 -29 -18
-76 -55 -105 -83 -29 -27 -65 -57 -80 -67 -15 -9 -40 -29 -57 -43 -16 -15 -49
-42 -72 -60 -120 -96 -185 -152 -190 -165 -3 -8 -11 -14 -18 -14 -8 0 -25 -14
-38 -31 -25 -32 -47 -32 -47 -1 0 9 48 67 106 127 59 61 160 169 226 240 165
179 160 175 184 175 12 0 27 -7 35 -16z m360 -65 c34 -12 79 -46 79 -60 0 -5
-44 -37 -98 -73 -54 -35 -104 -72 -111 -80 -8 -9 -18 -16 -24 -16 -6 0 -31
-17 -56 -38 -25 -22 -62 -47 -81 -57 -19 -10 -51 -34 -70 -54 -19 -20 -46 -45
-60 -56 -14 -11 -50 -40 -80 -65 -30 -25 -66 -54 -79 -65 -14 -11 -43 -36 -65
-56 -58 -50 -136 -100 -147 -94 -5 4 -9 19 -9 34 0 22 16 43 74 97 41 38 118
110 171 159 53 50 120 110 149 135 29 25 117 102 195 173 79 70 151 127 160
127 10 0 33 -5 52 -11z m-1231 -25 c0 -17 -109 -124 -125 -123 -5 0 -4 3 3 6
6 2 12 9 12 14 0 6 19 34 41 64 41 54 69 70 69 39z m-585 -55 l80 -40 17 23
c45 59 54 68 76 68 38 0 32 -11 -73 -126 -5 -6 -23 -32 -39 -57 -32 -50 -46
-59 -46 -28 0 34 -28 45 -123 48 -154 6 -207 31 -207 97 0 30 4 34 33 42 17 4
43 10 57 14 58 15 143 -1 225 -41z m335 44 c0 -10 -33 -51 -91 -116 -26 -29
-63 -70 -82 -92 -20 -22 -39 -36 -43 -32 -7 7 81 143 102 155 6 4 17 17 23 30
17 32 91 77 91 55z m404 -41 c15 -18 13 -22 -51 -78 -37 -32 -97 -88 -134
-124 -97 -96 -111 -108 -103 -87 3 9 10 17 15 17 5 0 9 5 9 11 0 14 60 91 125
160 29 32 63 71 76 88 26 36 39 38 63 13z m258 -44 c-40 -48 -176 -178 -187
-178 -22 0 -37 27 -26 47 19 36 100 103 124 103 13 0 32 9 42 20 20 22 65 29
47 8z m-252 -231 c0 -14 -91 -107 -105 -107 -5 0 -21 -14 -34 -31 -50 -63
-254 -249 -273 -249 -14 0 3 21 107 128 49 51 133 137 185 191 70 72 98 96
108 89 6 -6 12 -15 12 -21z m919 -5 c-10 -15 -59 -46 -59 -36 0 6 55 54 62 54
5 0 3 -8 -3 -18z m-1636 -54 c-35 -54 -83 -104 -83 -86 0 11 32 56 91 126 24
29 19 1 -8 -40z m1547 -18 c0 -5 -3 -10 -7 -10 -5 0 -44 -34 -88 -76 -44 -42
-107 -99 -140 -126 -33 -28 -69 -60 -80 -72 -41 -44 -133 -116 -149 -116 -28
0 -17 28 25 62 66 54 130 107 193 162 32 28 67 54 77 58 11 4 19 12 19 18 0 5
6 10 13 10 6 1 30 19 52 40 22 22 46 40 53 40 6 0 12 5 12 10 0 6 5 10 10 10
6 0 10 -4 10 -10z m-1640 -94 c0 -7 -7 -19 -15 -26 -8 -7 -15 -18 -15 -24 0
-7 -11 -23 -25 -36 -14 -13 -25 -27 -25 -32 0 -4 -9 -17 -20 -28 -37 -37 -20
2 30 70 28 37 50 73 50 79 0 6 5 11 10 11 6 0 10 -6 10 -14z m920 -15 c0 -10
-12 -27 -27 -36 -14 -10 -42 -33 -62 -52 -20 -18 -44 -41 -53 -49 -9 -9 -22
-14 -29 -12 -14 5 139 165 159 167 6 0 12 -7 12 -18z m-4152 -60 c10 -55 0
-114 -16 -95 -7 8 -4 159 3 152 2 -2 8 -28 13 -57z m4276 -168 c-6 -9 -19 -21
-30 -27 -10 -6 -40 -29 -65 -51 -69 -59 -140 -108 -147 -100 -3 3 41 53 98
110 58 57 106 109 108 115 3 8 12 4 26 -9 16 -16 18 -25 10 -38z m-1207 5 c-3
-7 -5 -2 -5 12 0 14 2 19 5 13 2 -7 2 -19 0 -25z m-2847 -88 c0 -11 -2 -20 -4
-20 -2 0 -6 9 -9 20 -3 11 -1 20 4 20 5 0 9 -9 9 -20z m2980 -22 c0 -7 -23
-38 -50 -68 -27 -30 -50 -59 -50 -63 0 -5 -9 -20 -20 -34 l-20 -26 0 36 c0 29
10 46 63 101 62 66 77 76 77 54z m-2392 -100 c-5 -34 -38 -37 -38 -4 0 20 5
26 21 26 15 0 20 -5 17 -22z m3633 -16 c9 -24 10 -23 -161 -152 -40 -30 -95
-74 -122 -97 -27 -24 -52 -43 -56 -43 -4 0 -32 -23 -62 -52 -75 -69 -119 -102
-127 -94 -3 3 -1 6 5 6 7 0 12 5 12 11 0 6 23 32 52 57 28 26 79 72 112 103
238 221 318 290 330 286 5 -2 13 -13 17 -25z m-3421 -282 c0 -5 -9 -10 -21
-10 -11 0 -17 5 -14 10 3 6 13 10 21 10 8 0 14 -4 14 -10z m-270 -65 c-7 -8
-16 -15 -21 -15 -16 0 -10 32 9 46 14 10 18 10 20 -2 2 -8 -2 -21 -8 -29z
m-170 -73 c0 -10 -10 -29 -22 -41 -21 -24 -31 -58 -49 -166 -5 -33 -18 -71
-28 -85 -10 -14 -21 -35 -25 -48 -4 -12 -11 -22 -16 -22 -4 0 -11 -11 -14 -25
-8 -31 -53 -62 -67 -48 -8 8 2 24 31 54 23 23 44 55 47 71 3 15 9 28 14 28 5
0 9 8 9 18 0 10 6 26 14 37 7 11 16 49 20 85 16 164 14 160 52 160 26 0 34 -4
34 -18z m4112 -58 c15 -14 -10 -50 -60 -83 -100 -67 -109 -71 -126 -65 -14 5
-13 9 7 28 51 45 77 66 85 66 5 0 21 14 37 30 28 29 45 36 57 24z m-5472 -100
c0 -10 -14 -14 -50 -14 -36 0 -50 4 -50 14 0 10 14 14 50 14 36 0 50 -4 50
-14z"/>
<path d="M1785 6570 c-3 -5 0 -19 8 -30 13 -18 15 -19 21 -5 10 27 7 45 -8 45
-8 0 -18 -4 -21 -10z"/>
<path d="M4730 6570 c0 -5 5 -10 10 -10 6 0 10 5 10 10 0 6 -4 10 -10 10 -5 0
-10 -4 -10 -10z"/>
<path d="M2055 6561 c-3 -5 -1 -12 5 -16 5 -3 10 1 10 9 0 18 -6 21 -15 7z"/>
<path d="M3395 6560 c-3 -5 -1 -10 4 -10 6 0 11 5 11 10 0 6 -2 10 -4 10 -3 0
-8 -4 -11 -10z"/>
<path d="M5010 6555 c0 -8 7 -15 16 -15 14 0 14 3 4 15 -7 8 -14 15 -16 15 -2
0 -4 -7 -4 -15z"/>
<path d="M1421 6505 c-1 -11 -8 -28 -15 -37 -14 -19 -46 -24 -46 -8 0 17 -46
11 -63 -8 -34 -37 -16 -65 36 -55 14 3 41 0 59 -6 21 -8 35 -8 42 -1 5 5 23
10 38 10 15 0 28 2 28 4 0 2 -15 21 -32 41 -18 20 -36 46 -40 58 -6 20 -6 21
-7 2z"/>
<path d="M1675 6490 c-3 -5 -1 -10 4 -10 6 0 11 5 11 10 0 6 -2 10 -4 10 -3 0
-8 -4 -11 -10z"/>
<path d="M1717 6464 c-11 -12 -8 -20 18 -48 19 -21 33 -26 70 -26 38 0 45 3
45 20 0 11 -7 20 -15 20 -8 0 -15 7 -15 15 0 8 -4 15 -10 15 -5 0 -10 -13 -10
-30 0 -39 -21 -38 -41 2 -16 33 -30 43 -42 32z"/>
<path d="M955 6449 c-4 -5 -2 -9 3 -9 5 0 12 -9 15 -20 5 -21 33 -37 44 -26 4
3 1 12 -5 18 -7 7 -12 19 -12 28 0 17 -36 25 -45 9z"/>
<path d="M1640 6440 c0 -10 8 -24 19 -29 15 -8 20 -6 29 13 13 28 7 36 -25 36
-16 0 -23 -6 -23 -20z"/>
<path d="M1869 6455 c-8 -30 6 -59 22 -49 15 9 10 54 -6 54 -8 0 -16 -2 -16
-5z"/>
<path d="M2333 6449 c-13 -5 -20 -14 -18 -26 2 -10 4 -20 4 -22 1 -3 10 5 22
17 25 28 22 42 -8 31z"/>
<path d="M4824 6445 c-13 -32 23 -48 47 -19 10 13 10 17 -2 25 -21 13 -39 11
-45 -6z"/>
<path d="M7451 6446 c-8 -9 -21 -16 -30 -16 -14 -1 -14 -2 1 -13 9 -7 20 -26
24 -41 6 -27 7 -27 25 -7 22 24 24 50 6 75 -12 16 -14 16 -26 2z"/>
<path d="M2465 6427 c-4 -10 -5 -21 -1 -24 10 -10 18 4 13 24 -4 17 -4 17 -12
0z"/>
<path d="M5265 6430 c3 -5 8 -10 11 -10 2 0 4 5 4 10 0 6 -5 10 -11 10 -5 0
-7 -4 -4 -10z"/>
<path d="M6661 6424 c0 -11 3 -14 6 -6 3 7 2 16 -1 19 -3 4 -6 -2 -5 -13z"/>
<path d="M6935 6430 c-4 -6 -3 -16 3 -22 6 -6 12 -6 17 2 4 6 3 16 -3 22 -6 6
-12 6 -17 -2z"/>
<path d="M770 6421 c0 -5 11 -8 25 -8 14 0 25 3 25 8 0 5 -11 9 -25 9 -14 0
-25 -4 -25 -9z"/>
<path d="M1945 6419 c-4 -6 -5 -13 -2 -16 7 -7 27 6 27 18 0 12 -17 12 -25 -2z"/>
<path d="M2155 6400 c-3 -5 -2 -10 4 -10 5 0 13 5 16 10 3 6 2 10 -4 10 -5 0
-13 -4 -16 -10z"/>
<path d="M433 6321 c-10 -16 -9 -20 3 -25 17 -7 31 21 18 34 -6 6 -14 2 -21
-9z"/>
<path d="M7437 6299 c-9 -17 -17 -37 -17 -44 0 -15 27 -28 41 -19 10 6 11 51
1 76 -6 15 -10 12 -25 -13z"/>
<path d="M6907 6293 c-14 -13 -6 -33 13 -33 22 0 23 1 14 24 -7 17 -16 20 -27
9z"/>
<path d="M7075 5959 c4 -129 10 -236 14 -239 18 -13 33 -69 22 -87 -6 -10 -11
-12 -11 -5 0 6 -4 12 -8 12 -5 0 -7 -26 -5 -57 2 -44 1 -53 -7 -38 -7 14 -8
-30 -3 -140 7 -178 6 -1302 -2 -1490 -3 -66 -10 -136 -15 -155 -8 -31 -15
-129 -35 -510 -3 -58 -7 -154 -8 -213 l-2 -108 34 -31 c32 -29 35 -30 42 -12
5 13 8 5 8 -26 2 -70 7 -74 82 -59 35 7 67 17 71 23 11 17 9 3306 -2 3327 -7
12 -26 19 -62 22 -29 3 -68 9 -87 13 l-33 7 7 -234z m85 146 c0 -8 -7 -15 -15
-15 -8 0 -15 7 -15 15 0 8 7 15 15 15 8 0 15 -7 15 -15z m-73 -57 c-3 -7 -5
-2 -5 12 0 14 2 19 5 13 2 -7 2 -19 0 -25z"/>
<path d="M497 5944 c-10 -11 -8 -64 2 -64 14 0 23 37 14 55 -5 9 -12 12 -16 9z"/>
<path d="M2435 5793 c-37 -6 -75 -40 -75 -67 0 -20 81 -96 101 -96 13 0 126
-88 146 -114 11 -13 33 -31 51 -40 18 -9 32 -21 32 -27 0 -5 41 -50 90 -99 50
-49 90 -96 90 -105 0 -19 48 -105 59 -105 4 0 15 -24 26 -52 10 -29 26 -65 36
-79 10 -14 28 -52 40 -85 11 -32 32 -82 45 -111 13 -28 24 -59 24 -67 0 -9 11
-40 24 -69 34 -77 46 -296 21 -386 -10 -34 -22 -64 -26 -67 -5 -3 -9 -18 -9
-33 0 -16 -14 -46 -32 -71 -18 -24 -39 -52 -47 -62 -14 -19 -72 -76 -138 -137
-19 -17 -50 -32 -73 -36 -22 -4 -67 -20 -100 -36 -94 -48 -241 -71 -405 -65
-225 8 -314 28 -488 111 -83 39 -100 44 -119 34 -36 -18 -68 -51 -68 -69 0
-17 30 -50 44 -50 4 0 22 -10 39 -22 133 -96 290 -129 637 -137 107 -2 267 25
345 59 22 9 58 20 79 24 22 4 49 14 60 22 11 8 30 14 43 14 12 0 37 14 55 30
18 17 36 30 40 30 3 0 13 6 20 13 7 7 25 20 40 30 15 9 37 35 48 57 11 22 34
46 50 55 16 8 35 25 41 38 6 12 20 30 31 40 10 10 22 32 25 49 3 18 14 33 24
35 18 5 42 64 53 134 4 20 16 45 27 55 12 10 27 31 35 46 17 32 18 100 3 115
-6 6 -11 39 -10 73 0 34 -5 72 -11 84 -7 11 -15 50 -19 86 -7 73 -40 201 -64
246 -8 16 -15 34 -15 40 0 6 -11 32 -25 58 -14 26 -25 52 -25 58 0 21 -44 103
-62 116 -10 7 -18 18 -18 25 0 6 -24 52 -54 102 -58 97 -163 213 -218 241 -18
9 -49 29 -68 44 -35 27 -153 86 -220 110 -41 15 -93 20 -135 13z"/>
<path d="M2465 5300 c-11 -5 -40 -9 -65 -9 -78 -2 -116 -17 -134 -55 -9 -19
-16 -42 -16 -51 0 -17 -96 -156 -113 -163 -17 -8 -73 -144 -102 -247 -17 -59
-10 -248 11 -280 7 -11 16 -38 19 -60 4 -22 20 -60 36 -84 35 -53 147 -131
190 -131 16 0 46 -7 68 -16 61 -24 179 -18 211 11 9 8 30 15 47 15 17 0 38 8
48 20 10 11 23 20 30 20 13 0 55 53 55 70 0 5 5 10 11 10 19 0 132 124 150
165 10 22 22 67 28 100 5 33 17 77 25 97 18 41 21 94 7 102 -5 3 -12 23 -15
43 -16 88 -55 191 -81 211 -11 9 -40 45 -63 78 -61 91 -138 143 -222 150 -19
2 -51 5 -70 8 -19 3 -44 1 -55 -4z m63 -226 c18 -8 32 -20 32 -25 0 -5 17 -28
37 -50 36 -40 67 -118 56 -145 -6 -18 14 -53 54 -96 38 -39 39 -46 14 -148 -6
-25 -13 -55 -16 -67 -3 -12 -27 -50 -54 -85 -28 -35 -59 -75 -70 -89 -24 -31
-116 -60 -151 -47 -68 25 -127 102 -147 193 -25 111 18 305 109 493 37 78 41
82 72 82 18 0 47 -7 64 -16z"/>
<path d="M3502 3122 c-84 -44 -110 -110 -49 -126 13 -3 29 -19 38 -38 l14 -33
92 -3 c92 -3 92 -3 99 23 4 18 -1 36 -18 63 -14 20 -28 54 -32 74 -7 40 -37
68 -71 68 -11 0 -44 -13 -73 -28z"/>
<path d="M3326 2440 c-22 -11 -49 -29 -61 -40 -30 -28 -155 -32 -204 -7 -65
32 -100 20 -108 -39 -4 -33 -1 -43 22 -66 33 -33 70 -45 157 -51 65 -4 69 -3
97 25 21 22 36 29 51 25 12 -3 36 3 56 15 28 16 40 18 62 10 15 -6 52 -17 82
-26 159 -45 200 -59 210 -71 7 -8 37 -21 68 -30 52 -16 58 -15 96 2 55 24 66
39 55 77 -12 41 -34 56 -82 56 -24 0 -68 14 -116 36 -69 33 -82 36 -141 31
-63 -5 -65 -4 -108 34 -51 44 -77 48 -136 19z"/>
<path d="M3260 2230 c-6 -10 -10 -36 -10 -58 0 -51 26 -85 66 -84 195 4 190 3
218 28 18 18 26 35 26 59 0 52 -35 65 -176 70 -103 3 -115 2 -124 -15z"/>
<path d="M0 421 l0 -421 196 0 c183 0 196 1 189 18 -4 9 -11 42 -16 72 -4 30
-10 63 -12 72 -2 10 -20 34 -41 55 -35 35 -146 239 -146 269 0 20 -48 106 -76
135 -13 14 -24 37 -24 51 0 15 -4 29 -9 32 -4 3 -16 32 -25 65 -9 33 -21 63
-26 66 -6 4 -10 -149 -10 -414z m330 -356 c0 -14 -4 -25 -10 -25 -11 0 -14 33
-3 43 11 11 13 8 13 -18z"/>
<path d="M7345 491 c-13 -21 21 -61 76 -91 32 -17 81 -46 109 -65 51 -35 71
-42 69 -27 -1 13 -226 192 -243 192 -2 0 -7 -4 -11 -9z"/>
<path d="M7608 278 c9 -9 15 -9 24 0 9 9 7 12 -12 12 -19 0 -21 -3 -12 -12z"/>
</g>
</svg>
