<?xml version="1.0" standalone="no"?>
<!DOCTYPE svg PUBLIC "-//W3C//DTD SVG 20010904//EN"
 "http://www.w3.org/TR/2001/REC-SVG-20010904/DTD/svg10.dtd">
<svg version="1.0" xmlns="http://www.w3.org/2000/svg"
 width="137.000000pt" height="70.000000pt" viewBox="0 0 137.000000 70.000000"
 preserveAspectRatio="xMidYMid meet">
<metadata>
Created by potrace 1.10, written by Peter Selinger 2001-2011
</metadata>
<g transform="translate(0.000000,70.000000) scale(0.100000,-0.100000)"
fill="#000000" stroke="none">
<path d="M1034 571 c-41 -25 -88 -86 -124 -162 -86 -182 23 -322 172 -224 21
14 50 24 66 23 38 -2 71 18 78 49 6 21 1 31 -21 50 -19 17 -34 23 -49 18 -12
-4 -36 -8 -53 -10 -18 -2 -41 -9 -52 -15 -31 -16 -41 -12 -41 15 0 26 25 85
36 85 3 0 19 -8 34 -17 27 -15 30 -15 55 1 56 37 71 126 29 175 -31 37 -81 42
-130 12z m107 -32 c16 -16 20 -28 15 -52 -9 -43 -33 -77 -55 -77 -29 0 -31 10
-10 48 23 44 24 52 4 52 -21 0 -100 -104 -114 -149 -14 -47 -14 -118 -1 -126
5 -3 34 6 65 20 88 42 102 8 16 -39 -58 -31 -90 -33 -122 -7 -64 52 5 255 111
327 43 30 64 30 91 3z m59 -269 c0 -23 -45 -39 -62 -22 -16 16 8 42 38 42 17
0 24 -6 24 -20z"/>
<path d="M310 559 c-19 -6 -45 -21 -58 -36 -21 -23 -22 -27 -7 -47 27 -37 28
-46 10 -112 -14 -52 -24 -70 -56 -95 -45 -36 -48 -47 -16 -77 31 -29 71 -35
142 -22 80 15 132 21 179 21 22 -1 45 4 52 10 9 8 23 7 49 -2 27 -10 42 -11
66 -2 16 6 44 9 62 6 44 -7 83 33 73 74 -4 15 -11 47 -15 70 -13 69 -66 112
-115 93 -21 -8 -24 -5 -29 19 -4 17 -24 43 -53 66 l-47 39 -101 2 c-56 2 -117
-2 -136 -7z m157 -45 c4 -12 -27 -24 -62 -24 -18 0 -26 -18 -58 -118 -20 -65
-37 -121 -37 -124 0 -3 17 -5 38 -4 27 1 37 -3 37 -14 0 -11 -13 -16 -45 -18
-24 -2 -48 -9 -52 -15 -6 -9 -12 -9 -28 1 -11 6 -31 12 -46 12 -36 0 -25 24
12 28 29 3 32 7 62 105 17 56 34 110 38 120 5 14 0 17 -30 17 -35 0 -47 12
-26 25 45 28 189 34 197 9z m79 11 c3 -8 -9 -52 -28 -97 -19 -46 -41 -108 -48
-138 -19 -81 -19 -82 -32 -78 -39 13 -32 59 38 238 11 30 24 63 27 73 8 21 35
23 43 2z m74 -61 c0 -20 -24 -44 -45 -44 -29 0 -32 16 -9 48 12 18 19 20 35
12 10 -6 19 -13 19 -16z m-220 -105 c-30 -80 -36 -69 -9 17 12 38 24 63 26 56
3 -7 -5 -40 -17 -73z m345 21 c11 -21 14 -42 9 -66 -3 -19 -2 -34 2 -33 40 7
44 -14 7 -38 -25 -17 -26 -17 -41 5 l-14 22 -30 -25 c-35 -30 -49 -31 -71 -7
-13 14 -15 25 -7 51 30 104 112 155 145 91z m-176 -9 c12 -8 11 -19 -4 -76
-18 -67 -36 -88 -58 -66 -8 8 -5 29 12 81 23 72 26 76 50 61z"/>
<path d="M685 354 c-22 -23 -48 -75 -40 -82 10 -10 65 59 65 80 0 22 -4 22
-25 2z"/>
</g>
</svg>
