<svg xmlns="http://www.w3.org/2000/svg" xmlns:xlink="http://www.w3.org/1999/xlink" version="1.1" width="1000" height="1000" viewBox="0 0 1000 1000" xml:space="preserve">
<desc>Created with Fabric.js 3.5.0</desc>
<defs>
</defs>
<rect x="0" y="0" width="100%" height="100%" fill="#ffffff"/>
<g transform="matrix(4.6489 0 0 4.6489 532.0393 517.7543)" id="238020">
<g style="" vector-effect="non-scaling-stroke">
		<g transform="matrix(0.1333 0 0 -0.1333 33.3091 -4.0607)">
<path style="stroke: none; stroke-width: 1; stroke-dasharray: none; stroke-linecap: butt; stroke-dashoffset: 0; stroke-linejoin: miter; stroke-miterlimit: 4; is-custom-font: none; font-file-url: none; fill: rgb(0,0,0); fill-rule: nonzero; opacity: 1;" transform=" translate(-1034.8475, -465.4096)" d="M 1065 631 c -71 -43 -145 -171 -145 -252 c 0 -65 30 -103 75 -96 c 42 7 115 53 115 72 c 0 20 -2 19 -60 -10 c -62 -32 -78 -31 -86 1 c -16 65 48 204 116 251 c 33 23 43 3 20 -41 c -11 -22 -17 -43 -14 -47 c 11 -18 34 -8 49 21 c 22 43 19 86 -7 104 c -28 20 -27 20 -63 -3 z" stroke-linecap="round"/>
</g>
		<g transform="matrix(0.1333 0 0 -0.1333 -40.0508 -4.4268)">
<path style="stroke: none; stroke-width: 1; stroke-dasharray: none; stroke-linecap: butt; stroke-dashoffset: 0; stroke-linejoin: miter; stroke-miterlimit: 4; is-custom-font: none; font-file-url: none; fill: rgb(0,0,0); fill-rule: nonzero; opacity: 1;" transform=" translate(-484.6337, -468.1618)" d="M 513 618 c -21 -29 -87 -226 -87 -265 c -1 -68 14 -54 40 35 c 13 45 38 112 54 149 c 26 56 28 69 17 80 c -11 12 -16 12 -24 1 z" stroke-linecap="round"/>
</g>
		<g transform="matrix(0.1333 0 0 -0.1333 -61.279 -1.9736)">
<path style="stroke: none; stroke-width: 1; stroke-dasharray: none; stroke-linecap: butt; stroke-dashoffset: 0; stroke-linejoin: miter; stroke-miterlimit: 4; is-custom-font: none; font-file-url: none; fill: rgb(0,0,0); fill-rule: nonzero; opacity: 1;" transform=" translate(-325.4415, -449.7596)" d="M 313 607 c -55 -13 -61 -41 -6 -31 c 33 6 36 5 29 -12 c -5 -10 -22 -66 -40 -123 c -17 -57 -35 -105 -41 -106 c -5 -2 -22 -6 -37 -9 c -39 -9 -35 -26 6 -26 c 19 0 37 -6 39 -12 c 4 -10 7 -10 14 -1 c 5 6 28 13 53 15 c 33 2 46 8 48 21 c 3 15 -2 17 -37 11 l -40 -6 l 24 78 c 14 44 30 97 37 119 c 14 48 32 65 70 65 c 18 0 28 5 28 15 c 0 18 -78 19 -147 2 z" stroke-linecap="round"/>
</g>
		<g transform="matrix(0.1333 0 0 -0.1333 -26.9583 -13.8917)">
<path style="stroke: none; stroke-width: 1; stroke-dasharray: none; stroke-linecap: butt; stroke-dashoffset: 0; stroke-linejoin: miter; stroke-miterlimit: 4; is-custom-font: none; font-file-url: none; fill: rgb(0,0,0); fill-rule: nonzero; opacity: 1;" transform=" translate(-582.8181, -539.1799)" d="M 564 545 c -8 -32 1 -43 24 -29 c 22 14 22 48 0 52 c -12 2 -19 -5 -24 -23 z" stroke-linecap="round"/>
</g>
		<g transform="matrix(0.1333 0 0 -0.1333 -12.6524 3.2894)">
<path style="stroke: none; stroke-width: 1; stroke-dasharray: none; stroke-linecap: butt; stroke-dashoffset: 0; stroke-linejoin: miter; stroke-miterlimit: 4; is-custom-font: none; font-file-url: none; fill: rgb(0,0,0); fill-rule: nonzero; opacity: 1;" transform=" translate(-690.1295, -410.3073)" d="M 649 461 c -42 -45 -62 -116 -38 -132 c 24 -15 45 -10 69 16 c 27 29 40 32 40 10 c 0 -21 27 -30 45 -15 c 21 17 19 30 -4 30 c -16 0 -18 5 -14 40 c 6 44 -16 90 -44 90 c -9 0 -33 -18 -54 -39 z m 66 -12 c 9 -13 -43 -89 -61 -89 c -24 0 -11 42 24 83 c 17 20 28 22 37 6 z" stroke-linecap="round"/>
</g>
		<g transform="matrix(0.1333 0 0 -0.1333 -32.2766 5.896)">
<path style="stroke: none; stroke-width: 1; stroke-dasharray: none; stroke-linecap: butt; stroke-dashoffset: 0; stroke-linejoin: miter; stroke-miterlimit: 4; is-custom-font: none; font-file-url: none; fill: rgb(0,0,0); fill-rule: nonzero; opacity: 1;" transform=" translate(-542.9338, -390.7608)" d="M 527 411 c -11 -33 -17 -67 -15 -77 c 5 -29 27 -27 33 3 c 4 15 13 46 20 67 c 11 29 12 43 4 53 c -18 21 -23 16 -42 -46 z" stroke-linecap="round"/>
</g>
		<g transform="matrix(0.1333 0 0 -0.1333 51.2401 10.4737)">
<path style="stroke: none; stroke-width: 1; stroke-dasharray: none; stroke-linecap: butt; stroke-dashoffset: 0; stroke-linejoin: miter; stroke-miterlimit: 4; is-custom-font: none; font-file-url: none; fill: rgb(0,0,0); fill-rule: nonzero; opacity: 1;" transform=" translate(-1169.3082, -356.4416)" d="M 1144 365 c -10 -25 10 -39 36 -25 c 26 14 22 34 -8 38 c -13 2 -25 -3 -28 -13 z" stroke-linecap="round"/>
</g>
</g>
</g>
</svg>