<?xml version="1.0" encoding="UTF-8"?>
<svg version="1.1" xmlns="http://www.w3.org/2000/svg" width="137" height="70">
<path d="M0 0 C2.40450178 2.40450178 2.29609139 3.08233942 2.3125 6.375 C2.23751516 9.28534927 2.05123756 10.88943473 0.8125 13.5625 C-1.55901674 15.4433581 -3.04938857 15.31898502 -6 15 C-5.51421457 11.87709365 -5.0013988 9.00419641 -4 6 C-9.82969054 9.99750208 -13.44213359 15.35348145 -15.375 22.125 C-15.97333581 25.83468201 -15.90446731 28.38213076 -15 32 C-14.39671875 31.71125 -13.7934375 31.4225 -13.171875 31.125 C-12.37265625 30.75375 -11.5734375 30.3825 -10.75 30 C-9.56664063 29.443125 -9.56664063 29.443125 -8.359375 28.875 C-6 28 -6 28 -2 28 C-2.2109375 30.3203125 -2.2109375 30.3203125 -3 33 C-7.16995568 36.30720623 -11.6597916 37.93618055 -16.9375 38.1875 C-20 37 -20 37 -21.9375 34.375 C-24.40668213 26.5317156 -22.37206569 20.23328906 -19 13 C-14.55639484 5.62311615 -9.33760619 -1.25698545 0 0 Z " fill="#D4D4D4" transform="translate(114,14)"/>
<path d="M0 0 C0 0.99 0 1.98 0 3 C-1.2375 3.09023438 -2.475 3.18046875 -3.75 3.2734375 C-6.0149678 3.73210816 -6.0149678 3.73210816 -8 5 C-10.07750326 8.66337185 -10.9948142 12.55569711 -12 16.625 C-12.29777344 17.71296875 -12.59554687 18.8009375 -12.90234375 19.921875 C-13.63275431 22.60790093 -14.33013923 25.29835511 -15 28 C-13.02 28 -11.04 28 -9 28 C-9 29.32 -9 30.64 -9 32 C-15.63198569 33.93833398 -21.18597425 34.05268874 -28 33 C-28 31.68 -28 30.36 -28 29 C-26.02 28.67 -24.04 28.34 -22 28 C-21.66226562 26.84242187 -21.32453125 25.68484375 -20.9765625 24.4921875 C-20.52610017 22.95310788 -20.07557606 21.41404633 -19.625 19.875 C-19.40328125 19.11445312 -19.1815625 18.35390625 -18.953125 17.5703125 C-17.71617216 13.35012047 -16.42291307 9.16235318 -15 5 C-16.98 5 -18.96 5 -21 5 C-21 4.01 -21 3.02 -21 2 C-14.68143909 -0.5640537 -6.51572754 -3.25786377 0 0 Z " fill="#D3D3D3" transform="translate(47,17)"/>
<path d="M0 0 C1.875 1.5625 1.875 1.5625 3 4 C3 6.33333333 3 8.66666667 3 11 C3.99 11.66 4.98 12.32 6 13 C5.67 14.32 5.34 15.64 5 17 C2.125 17.625 2.125 17.625 -1 18 C-1.66 17.34 -2.32 16.68 -3 16 C-3.556875 16.495 -4.11375 16.99 -4.6875 17.5 C-7.41508925 19.26924708 -8.80848491 19.4199362 -12 19 C-12.66 18.34 -13.32 17.68 -14 17 C-13.80280141 11.08404238 -12.7479444 7.74004733 -9 3 C-8.319375 2.071875 -8.319375 2.071875 -7.625 1.125 C-5.02176236 -0.67724145 -3.06254352 -0.44662093 0 0 Z M-4 5 C-6.91171789 8.66980204 -6.91171789 8.66980204 -8 13 C-4.7014861 12.27731765 -4.7014861 12.27731765 -3.3125 8.9375 C-2.6628125 7.4834375 -2.6628125 7.4834375 -2 6 C-2.66 5.67 -3.32 5.34 -4 5 Z " fill="#D4D4D4" transform="translate(73,29)"/>
<path d="M0 0 C1.65 0.33 3.3 0.66 5 1 C4.57970004 7.02429941 2.50847156 12.04004071 0.27734375 17.62109375 C-1.50208204 22.3281375 -2.79672525 27.11842196 -4 32 C-5.9375 32.5625 -5.9375 32.5625 -8 33 C-9 32 -9 32 -9.30859375 29.17578125 C-9.22666695 23.54870363 -6.97491175 18.40822063 -5.0625 13.1875 C-4.68931641 12.13884766 -4.31613281 11.09019531 -3.93164062 10.00976562 C-1.23028274 2.46056548 -1.23028274 2.46056548 0 0 Z " fill="#D7D7D7" transform="translate(50,16)"/>
<path d="M0 0 C1.32 0.33 2.64 0.66 4 1 C3.44854729 6.23880078 2.57077907 10.97350697 1 16 C-0.65 16 -2.3 16 -4 16 C-4.5326514 9.741346 -2.81849506 5.54891215 0 0 Z " fill="#DCDCDC" transform="translate(54,32)"/>
<path d="M0 0 C2.0625 0.4375 2.0625 0.4375 4 1 C4.33 2.32 4.66 3.64 5 5 C2.625 6.5625 2.625 6.5625 0 8 C-0.66 7.67 -1.32 7.34 -2 7 C-1.125 1.125 -1.125 1.125 0 0 Z " fill="#E4E4E4" transform="translate(57,21)"/>
<path d="M0 0 C1.2065625 0.0309375 1.2065625 0.0309375 2.4375 0.0625 C2.4375 1.3825 2.4375 2.7025 2.4375 4.0625 C1.4375 5.0625 1.4375 5.0625 -1.125 5.125 C-2.3315625 5.0940625 -2.3315625 5.0940625 -3.5625 5.0625 C-3.5625 0.08689024 -3.5625 0.08689024 0 0 Z " fill="#E4E4E4" transform="translate(117.5625,40.9375)"/>
</svg>
